<?xml version="1.0" encoding="UTF-8" standalone="no"?>
<svg
   xmlns:dc="http://purl.org/dc/elements/1.1/"
   xmlns:cc="http://creativecommons.org/ns#"
   xmlns:rdf="http://www.w3.org/1999/02/22-rdf-syntax-ns#"
   xmlns:svg="http://www.w3.org/2000/svg"
   xmlns="http://www.w3.org/2000/svg"
   xmlns:sodipodi="http://sodipodi.sourceforge.net/DTD/sodipodi-0.dtd"
   xmlns:inkscape="http://www.inkscape.org/namespaces/inkscape"
   width="279.0824mm"
   height="116.68121mm"
   viewBox="0 0 279.0824 116.68121"
   version="1.1"
   id="svg8"
   inkscape:version="1.0.2 (e86c8708, 2021-01-15)"
   sodipodi:docname="handrail_profile_0001.svg">
  <defs
     id="defs2" />
  <sodipodi:namedview
     id="base"
     pagecolor="#ffffff"
     bordercolor="#666666"
     borderopacity="1.0"
     inkscape:pageopacity="0.0"
     inkscape:pageshadow="2"
     inkscape:zoom="0.80344867"
     inkscape:cx="451.53599"
     inkscape:cy="30.745411"
     inkscape:document-units="mm"
     inkscape:current-layer="layer1"
     inkscape:document-rotation="0"
     showgrid="false"
     showguides="true"
     inkscape:guide-bbox="true"
     inkscape:snap-global="false"
     fit-margin-top="0"
     fit-margin-left="0"
     fit-margin-right="0"
     fit-margin-bottom="0"
     inkscape:window-width="1877"
     inkscape:window-height="1027"
     inkscape:window-x="1440"
     inkscape:window-y="25"
     inkscape:window-maximized="1">
    <sodipodi:guide
       position="0.0036874215,174.75731"
       orientation="1,0"
       id="guide835" />
    <sodipodi:guide
       position="278.95012,96.138255"
       orientation="1,0"
       id="guide837" />
    <sodipodi:guide
       position="86.182255,0.13230103"
       orientation="0,-1"
       id="guide839" />
    <sodipodi:guide
       position="111.12869,116.54898"
       orientation="0,-1"
       id="guide841" />
  </sodipodi:namedview>
  <metadata
     id="metadata5">
    <rdf:RDF>
      <cc:Work
         rdf:about="">
        <dc:format>image/svg+xml</dc:format>
        <dc:type
           rdf:resource="http://purl.org/dc/dcmitype/StillImage" />
        <dc:title></dc:title>
      </cc:Work>
    </rdf:RDF>
  </metadata>
  <g
     inkscape:label="Layer 1"
     inkscape:groupmode="layer"
     id="layer1"
     transform="translate(-71.811787,-81.510609)">
    <path
       id="path843"
       style="fill:none;stroke:#000000;stroke-width:0.999999px;stroke-linecap:butt;stroke-linejoin:miter;stroke-opacity:1"
       d="M 0.013671875 0.5 L 0.013671875 440.5 C 0.013671875 440.5 920.39081 443.23976 967.89648 442.32617 C 1017.0079 442.32617 1054.2988 407.66667 1054.2988 364.80664 L 1054.2988 241.41211 C 1054.9322 180.49848 1017.7059 157.93961 972.31055 144.1582 C 920.06856 128.29827 869.28794 114.16736 819.47266 101.55664 A 50.376076 50.376076 0 0 1 770.14062 141.73242 A 50.376076 50.376076 0 0 1 719.76367 91.357422 A 50.376076 50.376076 0 0 1 721.45703 78.412109 C 665.7468 66.221882 610.8832 55.863747 556.14258 47.054688 A 50.376075 50.376075 0 0 1 506.11914 91.486328 A 50.376075 50.376075 0 0 1 455.74219 41.111328 A 50.376075 50.376075 0 0 1 456.45508 32.664062 C 311.036 14.02252 163.38885 5.0558331 0.013671875 0.5 z "
       transform="matrix(0.26458333,0,0,0.26458333,71.811787,81.510609)" />
  </g>
</svg>
