<?xml version="1.0" encoding="UTF-8" standalone="no"?>
<svg
   xmlns:dc="http://purl.org/dc/elements/1.1/"
   xmlns:cc="http://creativecommons.org/ns#"
   xmlns:rdf="http://www.w3.org/1999/02/22-rdf-syntax-ns#"
   xmlns:svg="http://www.w3.org/2000/svg"
   xmlns="http://www.w3.org/2000/svg"
   xmlns:xlink="http://www.w3.org/1999/xlink"
   xmlns:sodipodi="http://sodipodi.sourceforge.net/DTD/sodipodi-0.dtd"
   xmlns:inkscape="http://www.inkscape.org/namespaces/inkscape"
   width="210mm"
   height="297mm"
   viewBox="0 0 210 297"
   version="1.1"
   id="svg8"
   inkscape:version="1.0.2 (e86c8708, 2021-01-15)"
   sodipodi:docname="leaf_pattern_0001.svg">
  <defs
     id="defs2" />
  <sodipodi:namedview
     id="base"
     pagecolor="#ffffff"
     bordercolor="#666666"
     borderopacity="1.0"
     inkscape:pageopacity="0.0"
     inkscape:pageshadow="2"
     inkscape:zoom="0.56925505"
     inkscape:cx="396.85039"
     inkscape:cy="561.25984"
     inkscape:document-units="mm"
     inkscape:current-layer="layer1"
     inkscape:document-rotation="0"
     showgrid="false"
     inkscape:window-width="1252"
     inkscape:window-height="847"
     inkscape:window-x="1714"
     inkscape:window-y="50"
     inkscape:window-maximized="0" />
  <metadata
     id="metadata5">
    <rdf:RDF>
      <cc:Work
         rdf:about="">
        <dc:format>image/svg+xml</dc:format>
        <dc:type
           rdf:resource="http://purl.org/dc/dcmitype/StillImage" />
        <dc:title></dc:title>
      </cc:Work>
    </rdf:RDF>
  </metadata>
  <g
     inkscape:label="Layer 1"
     inkscape:groupmode="layer"
     id="layer1">
    <rect
       style="fill:#000000;fill-rule:evenodd;stroke-width:0.264583"
       id="rect10"
       width="246.44048"
       height="246.44048"
       x="-12.968721"
       y="20.130274" />
    <path
       style="fill:none;stroke:#e6e6e6;stroke-width:10;stroke-linecap:butt;stroke-linejoin:miter;stroke-opacity:1"
       d="m -75.595238,148.92262 c 0,0 145.142855,-91.470239 147.410713,-40.06548 2.267857,51.40476 -3.779761,71.81548 75.595235,31.75 79.375,-40.06547 -40.06547,-115.660712 55.94048,-100.541665 96.00596,15.119048 15.11905,13.607143 17.3869,92.226185 2.26786,78.61905 37.79762,49.13691 92.22618,41.57739 54.42857,-7.55953 54.42857,-7.55953 54.42857,-7.55953"
       id="path14" />
    <path
       style="fill:none;stroke:#e6e6e6;stroke-width:10;stroke-linecap:butt;stroke-linejoin:miter;stroke-opacity:1"
       d="M -45.357142,232.07738 C 71.815475,236.61309 127.75595,196.54762 147.41071,269.875 167.06547,343.20239 283.48215,387.80357 249.46428,303.1369 215.44642,218.47024 110.36905,236.61309 241.1488,188.98809"
       id="path16"
       sodipodi:nodetypes="cssc" />
    <path
       id="path841"
       style="fill:#e6e6e6;stroke:#e6e6e6;stroke-width:4.72848"
       d="m 10.719664,78.601978 c 6.717701,6.608372 9.116424,14.723722 8.221724,15.375171 -0.8947,0.65145 -10.0508776,-1.310314 -16.7685771,-7.918684 -6.7176995,-6.608371 -8.4530647,-15.360894 -7.5583668,-16.012345 0.894698,-0.651451 9.3875192,1.947486 16.1052199,8.555858 z"
       sodipodi:nodetypes="sssss" />
    <path
       id="path857"
       style="fill:#e6e6e6;stroke:#e6e6e6;stroke-width:4.72848"
       d="m 38.941173,78.487719 c -4.715181,8.158747 -11.971061,12.513628 -12.825837,11.810612 -0.854777,-0.703016 -1.24885,-10.0587 3.466329,-18.217446 4.71518,-8.158745 12.754072,-12.031002 13.608849,-11.327989 0.854777,0.703014 0.465839,9.576076 -4.249341,17.734823 z"
       sodipodi:nodetypes="sssss" />
    <path
       id="path859"
       style="fill:#e6e6e6;stroke:#e6e6e6;stroke-width:4.72848"
       d="m 113.43797,130.19352 c 6.71771,6.60837 9.11643,14.72372 8.22173,15.37517 -0.8947,0.65145 -10.05088,-1.31031 -16.76858,-7.91868 -6.717701,-6.60837 -8.453061,-15.36089 -7.558371,-16.01235 0.8947,-0.65145 9.387521,1.94749 16.105221,8.55586 z"
       sodipodi:nodetypes="sssss" />
    <path
       id="path861"
       style="fill:#e6e6e6;stroke:#e6e6e6;stroke-width:4.72848"
       d="m 196.50455,76.163776 c -4.71518,8.15875 -11.97106,12.51363 -12.82583,11.81061 -0.85478,-0.70301 -1.24885,-10.0587 3.46633,-18.21744 4.71518,-8.15875 12.75407,-12.03101 13.60884,-11.32799 0.85478,0.70301 0.46584,9.57607 -4.24934,17.73482 z"
       sodipodi:nodetypes="sssss" />
    <use
       x="0"
       y="0"
       xlink:href="#path859"
       id="use863"
       transform="rotate(172.38495,67.071653,125.41486)"
       width="100%"
       height="100%" />
    <path
       id="path865"
       style="fill:#e6e6e6;stroke:#e6e6e6;stroke-width:4.72848"
       d="m 160.70822,112.09628 c 0.17265,9.42169 -3.79418,16.89678 -4.88916,16.73585 -1.09498,-0.16093 -6.26148,-7.97063 -6.43413,-17.39232 -0.17264,-9.42169 4.71395,-16.887565 5.80892,-16.726655 1.09498,0.16094 5.34173,7.961435 5.51437,17.383125 z"
       sodipodi:nodetypes="sssss" />
    <use
       x="0"
       y="0"
       xlink:href="#path859"
       id="use867"
       transform="rotate(146.6979,129.82689,151.08115)"
       width="100%"
       height="100%" />
    <use
       x="0"
       y="0"
       xlink:href="#path859"
       id="use869"
       transform="rotate(71.414372,66.843135,110.69676)"
       width="100%"
       height="100%" />
    <use
       x="0"
       y="0"
       xlink:href="#path859"
       id="use882"
       transform="rotate(104.24849,31.730944,138.97465)"
       width="100%"
       height="100%" />
    <use
       x="0"
       y="0"
       xlink:href="#path859"
       id="use884"
       transform="rotate(165.6579,86.087212,185.53636)"
       width="100%"
       height="100%" />
    <use
       x="0"
       y="0"
       xlink:href="#path859"
       id="use886"
       transform="rotate(161.01106,141.08188,169.05747)"
       width="100%"
       height="100%" />
  </g>
</svg>
