<?xml version="1.0" encoding="UTF-8" standalone="no"?>
<!-- Created with Inkscape (http://www.inkscape.org/) -->

<svg
   xmlns:dc="http://purl.org/dc/elements/1.1/"
   xmlns:cc="http://creativecommons.org/ns#"
   xmlns:rdf="http://www.w3.org/1999/02/22-rdf-syntax-ns#"
   xmlns:svg="http://www.w3.org/2000/svg"
   xmlns="http://www.w3.org/2000/svg"
   xmlns:sodipodi="http://sodipodi.sourceforge.net/DTD/sodipodi-0.dtd"
   xmlns:inkscape="http://www.inkscape.org/namespaces/inkscape"
   width="210mm"
   height="297mm"
   viewBox="0 0 210 297"
   version="1.1"
   id="svg8"
   inkscape:version="0.92.3 (2405546, 2018-03-11)"
   sodipodi:docname="20180802_abstraction_0001.svg">
  <defs
     id="defs2" />
  <sodipodi:namedview
     id="base"
     pagecolor="#ffffff"
     bordercolor="#666666"
     borderopacity="1.0"
     inkscape:pageopacity="0.0"
     inkscape:pageshadow="2"
     inkscape:zoom="1.0464821"
     inkscape:cx="175.43824"
     inkscape:cy="493.60923"
     inkscape:document-units="mm"
     inkscape:current-layer="layer1"
     showgrid="false"
     inkscape:window-width="1920"
     inkscape:window-height="1043"
     inkscape:window-x="1920"
     inkscape:window-y="0"
     inkscape:window-maximized="1" />
  <metadata
     id="metadata5">
    <rdf:RDF>
      <cc:Work
         rdf:about="">
        <dc:format>image/svg+xml</dc:format>
        <dc:type
           rdf:resource="http://purl.org/dc/dcmitype/StillImage" />
        <dc:title></dc:title>
      </cc:Work>
    </rdf:RDF>
  </metadata>
  <g
     inkscape:label="Layer 1"
     inkscape:groupmode="layer"
     id="layer1">
    <path
       style="opacity:1;fill:#999999;fill-opacity:1;stroke:#000000;stroke-width:0.1;stroke-linecap:round;stroke-miterlimit:4;stroke-dasharray:none;stroke-opacity:1"
       d="m 226.74488,169.16236 c 33.64656,33.66309 -61.76738,86.17858 -137.961314,86.17858 -76.193936,0 -126.878147,-34.57187 -94.6636559,-69.60787 C 46.23747,129.0508 73.25547,200.71179 122.45952,200.04784 c 64.67496,-0.87272 61.25497,-73.93701 104.28536,-30.88548 z"
       id="path10"
       inkscape:connector-curvature="0"
       sodipodi:nodetypes="sssss" />
    <path
       sodipodi:nodetypes="ssssssss"
       inkscape:connector-curvature="0"
       id="path13"
       d="m 119.18958,115.9753 c 5.13067,-17.897995 -96.257787,-44.456656 -162.521435,-6.8449 -66.263645,37.61177 -93.276455,92.69727 -47.965555,107.26495 73.305305,23.56803 42.119816,-73.54384 85.2389014,-97.25511 26.6823586,-14.67268 53.4899406,-7.47196 75.5732426,0.1351 2.957663,1.01883 -22.687715,39.32865 -11.619386,42.97411 31.357144,10.32777 26.576897,-37.7156 29.536572,-36.77226 15.78686,5.03178 27.31001,6.01343 31.75766,-9.50189 z"
       style="opacity:1;fill:#999999;fill-opacity:1;stroke:#000000;stroke-width:0.1;stroke-linecap:round;stroke-miterlimit:4;stroke-dasharray:none;stroke-opacity:1" />
  </g>
</svg>
