<?xml version="1.0" encoding="UTF-8" standalone="no"?>
<!-- Created with Inkscape (http://www.inkscape.org/) -->

<svg
   xmlns:dc="http://purl.org/dc/elements/1.1/"
   xmlns:cc="http://creativecommons.org/ns#"
   xmlns:rdf="http://www.w3.org/1999/02/22-rdf-syntax-ns#"
   xmlns:svg="http://www.w3.org/2000/svg"
   xmlns="http://www.w3.org/2000/svg"
   xmlns:xlink="http://www.w3.org/1999/xlink"
   xmlns:sodipodi="http://sodipodi.sourceforge.net/DTD/sodipodi-0.dtd"
   xmlns:inkscape="http://www.inkscape.org/namespaces/inkscape"
   width="594.02136mm"
   height="419.94666mm"
   viewBox="0 0 2104.8001 1488"
   id="svg2"
   version="1.1"
   inkscape:version="0.91 r13725"
   sodipodi:docname="20170405_abstraction_0002-0001_krita.svg">
  <defs
     id="defs4">
    <inkscape:path-effect
       effect="interpolate"
       id="path-effect6335"
       is_visible="true"
       trajectory="M 1456.5623,977.52564 1473.1928,420.06122 726.85998,502.90284 917.61488,1119.28"
       equidistant_spacing="true"
       steps="43"
       trajectory-nodetypes="cccc" />
    <inkscape:path-effect
       effect="interpolate"
       id="path-effect4597"
       is_visible="true"
       trajectory="M 1164.3001,868.64567 1110.4758,596.31094"
       equidistant_spacing="true"
       steps="20" />
    <inkscape:path-effect
       effect="interpolate"
       id="path-effect4590"
       is_visible="true"
       trajectory="M 1238.208,746.53688 891.16198,780.27747"
       equidistant_spacing="true"
       steps="7" />
    <inkscape:path-effect
       effect="interpolate"
       id="path-effect3908-6-3"
       is_visible="true"
       trajectory="M 619.19999,511.54286 109.02857,543.77143"
       equidistant_spacing="true"
       steps="20" />
    <inkscape:path-effect
       steps="20"
       equidistant_spacing="true"
       trajectory="M 100.93037,546.88247 610.75445,509.5599"
       is_visible="true"
       id="path-effect3912-7-5"
       effect="interpolate" />
    <inkscape:path-effect
       effect="interpolate"
       id="path-effect3908-6-3-3"
       is_visible="true"
       trajectory="M 619.19999,511.54286 109.02857,543.77143"
       equidistant_spacing="true"
       steps="20" />
    <inkscape:path-effect
       steps="20"
       equidistant_spacing="true"
       trajectory="M 100.93037,546.88247 610.75445,509.5599"
       is_visible="true"
       id="path-effect3912-7-5-6"
       effect="interpolate" />
    <inkscape:path-effect
       effect="interpolate"
       id="path-effect3925-3-5"
       is_visible="true"
       trajectory="M 1481.8298,712.46745 1106.7441,744.0103"
       equidistant_spacing="true"
       steps="20" />
    <inkscape:path-effect
       effect="interpolate"
       id="path-effect4583"
       is_visible="true"
       trajectory="M 1543.2301,493.55648 1253.2218,475.88284"
       equidistant_spacing="true"
       steps="20" />
    <inkscape:path-effect
       effect="interpolate"
       id="path-effect4590-7"
       is_visible="true"
       trajectory="M 714.97908,413.22175 367.93305,446.96234"
       equidistant_spacing="true"
       steps="7" />
    <inkscape:path-effect
       effect="interpolate"
       id="path-effect4597-5"
       is_visible="true"
       trajectory="M 641.07113,535.33054 587.24686,262.99581"
       equidistant_spacing="true"
       steps="20" />
    <inkscape:path-effect
       effect="interpolate"
       id="path-effect6305"
       is_visible="true"
       trajectory="m 1077.0353,874.07062 467.4147,-52.3711 -14.9187,-221.92867 -487.2311,16.26784"
       equidistant_spacing="true"
       steps="42"
       trajectory-nodetypes="cccc" />
    <inkscape:path-effect
       effect="interpolate"
       id="path-effect6335-3"
       is_visible="true"
       trajectory="M 933.33332,644.21051 949.9639,86.746095 203.63105,169.58771 l 190.7549,616.3772"
       equidistant_spacing="true"
       steps="43"
       trajectory-nodetypes="cccc" />
  </defs>
  <sodipodi:namedview
     id="base"
     pagecolor="#ffffff"
     bordercolor="#666666"
     borderopacity="1.0"
     inkscape:pageopacity="0.0"
     inkscape:pageshadow="2"
     inkscape:zoom="0.49497475"
     inkscape:cx="1100.3505"
     inkscape:cy="668.93511"
     inkscape:document-units="px"
     inkscape:current-layer="layer2"
     showgrid="false"
     fit-margin-top="0"
     fit-margin-left="0"
     fit-margin-right="0"
     fit-margin-bottom="0"
     inkscape:window-width="1920"
     inkscape:window-height="1015"
     inkscape:window-x="0"
     inkscape:window-y="0"
     inkscape:window-maximized="1" />
  <metadata
     id="metadata7">
    <rdf:RDF>
      <cc:Work
         rdf:about="">
        <dc:format>image/svg+xml</dc:format>
        <dc:type
           rdf:resource="http://purl.org/dc/dcmitype/StillImage" />
        <dc:title></dc:title>
      </cc:Work>
    </rdf:RDF>
  </metadata>
  <g
     inkscape:label="Layer 1"
     inkscape:groupmode="layer"
     id="layer1"
     transform="translate(600.97144,220.20923)">
    <image
       sodipodi:absref="/home/htran/Pictures/paintings/jpg/20170405_abstraction_0002-0001.jpeg"
       xlink:href="/home/htran/Pictures/paintings/jpg/20170405_abstraction_0002-0001.jpeg"
       width="2104.8"
       height="1488"
       preserveAspectRatio="none"
       id="image3479"
       x="-600.97144"
       y="-220.20923" />
  </g>
  <g
     inkscape:groupmode="layer"
     id="layer2"
     inkscape:label="Layer 2">
    <g
       transform="translate(65.779435,48.363595)"
       style="display:inline"
       id="g4013">
      <g
         id="g4053"
         style="display:inline;stroke:#f9f9f9"
         transform="translate(-9.3319713,1.74021)">
        <path
           id="path3905"
           style="fill:none;fill-rule:evenodd;stroke:#f9f9f9;stroke-width:4;stroke-linecap:butt;stroke-linejoin:miter;stroke-opacity:1"
           d="M 630.85713,460.11429 607.54285,562.97143 M 604.43909,461.70226 580.25863,564.77594 M 578.02105,463.29023 552.97442,566.58045 M 551.603,464.8782 525.69021,568.38496 M 525.18496,466.46617 498.406,570.18948 m 0.36091,-102.13534 -27.64512,103.93985 m 1.22708,-102.35188 -28.51129,104.15639 m 2.09324,-102.56842 -29.37745,104.37293 m 2.95941,-102.78496 -30.24362,104.58947 m 3.82557,-103.0015 -31.10978,104.80601 m 4.69174,-103.21804 -31.97595,105.02255 m 5.5579,-103.43458 -32.84211,105.23909 m 6.42407,-103.65112 -33.70828,105.45564 m 7.29023,-103.86767 -34.57444,105.67218 m 8.1564,-104.08421 -35.44061,105.88872 m 9.02257,-104.30075 -36.30678,106.10526 m 9.88873,-104.51729 -37.17294,106.3218 m 10.7549,-104.73383 -38.03911,106.53834 M 155.33233,488.69775 116.42706,595.45263 M 128.91429,490.28572 89.142854,597.25715"
           inkscape:path-effect="#path-effect3908-6-3-3"
           inkscape:original-d="M 630.85714,460.11429 607.54285,562.97143 M 128.91429,490.28572 89.142857,597.25715"
           inkscape:connector-curvature="0" />
        <path
           inkscape:original-d="m 82.399995,497.51231 37.060755,98.74031 m 464.33166,-136.98399 53.92407,100.58255"
           inkscape:path-effect="#path-effect3912-7-5-6"
           d="m 82.399992,497.51231 37.060758,98.74031 m -10.67168,-100.75313 37.9483,98.83727 m -11.55923,-100.8501 38.83584,98.93423 m -12.44676,-100.94705 39.72338,99.03119 m -13.33431,-101.04402 40.61093,99.12815 m -14.22185,-101.14097 41.49847,99.22511 m -15.1094,-101.23794 42.38601,99.32207 m -15.99693,-101.3349 43.27355,99.41903 m -16.88448,-101.43185 44.1611,99.51599 m -17.77202,-101.52882 45.04864,99.61295 m -18.65957,-101.62577 45.93619,99.70991 m -19.54711,-101.72274 46.82372,99.80687 m -20.43465,-101.81969 47.71127,99.90383 M 425.45797,471.34558 474.05678,571.34637 M 451.84704,469.33275 501.3334,569.4305 M 478.23612,467.31993 528.61001,567.51464 M 504.62519,465.3071 555.88663,565.59877 m -24.87236,-102.30449 52.14898,100.38863 m -25.75991,-102.40146 53.03653,100.48559 m -26.64746,-102.49841 53.92408,100.58254"
           style="fill:none;fill-rule:evenodd;stroke:#f9f9f9;stroke-width:4;stroke-linecap:butt;stroke-linejoin:miter;stroke-opacity:1"
           id="path3910"
           inkscape:connector-curvature="0" />
        <path
           style="fill:none;fill-rule:evenodd;stroke:#f9f9f9;stroke-width:4;stroke-linecap:butt;stroke-linejoin:miter;stroke-opacity:1"
           d="M 89.142857,516.34286 93.257142,580.8 630.85714,534.17143 625.37143,483.42857 Z"
           id="path3916"
           inkscape:connector-curvature="0" />
      </g>
      <g
         style="display:inline;stroke:#939dac"
         transform="translate(-4.5286273,1.19337)"
         id="g4092">
        <rect
           style="display:inline;opacity:1;fill:none;fill-opacity:1;stroke:#939dac;stroke-width:4;stroke-linecap:round;stroke-linejoin:miter;stroke-miterlimit:4;stroke-dasharray:none;stroke-dashoffset:0;stroke-opacity:1"
           id="rect3927"
           width="123.42857"
           height="24.685715"
           x="1036.8032"
           y="716.23511"
           transform="matrix(0.99895,-0.04581374,0.04581374,0.99895,0,0)" />
        <rect
           transform="matrix(0.99895,-0.04581374,0.04581374,0.99895,0,0)"
           y="699.60529"
           x="1183.09"
           height="24.685715"
           width="123.42857"
           id="rect3929"
           style="display:inline;opacity:1;fill:none;fill-opacity:1;stroke:#939dac;stroke-width:4;stroke-linecap:round;stroke-linejoin:miter;stroke-miterlimit:4;stroke-dasharray:none;stroke-dashoffset:0;stroke-opacity:1" />
        <rect
           style="display:inline;opacity:1;fill:none;fill-opacity:1;stroke:#939dac;stroke-width:4;stroke-linecap:round;stroke-linejoin:miter;stroke-miterlimit:4;stroke-dasharray:none;stroke-dashoffset:0;stroke-opacity:1"
           id="rect3931"
           width="123.42857"
           height="24.685715"
           x="1126.896"
           y="757.43439"
           transform="matrix(0.99895,-0.04581374,0.04581374,0.99895,0,0)" />
        <rect
           transform="matrix(0.99895,-0.04581374,0.04581374,0.99895,0,0)"
           y="734.94763"
           x="1265.2142"
           height="24.685715"
           width="123.42857"
           id="rect3933"
           style="display:inline;opacity:1;fill:none;fill-opacity:1;stroke:#939dac;stroke-width:4;stroke-linecap:round;stroke-linejoin:miter;stroke-miterlimit:4;stroke-dasharray:none;stroke-dashoffset:0;stroke-opacity:1" />
        <rect
           style="display:inline;opacity:1;fill:none;fill-opacity:1;stroke:#939dac;stroke-width:4;stroke-linecap:round;stroke-linejoin:miter;stroke-miterlimit:4;stroke-dasharray:none;stroke-dashoffset:0;stroke-opacity:1"
           id="rect3935"
           width="123.42857"
           height="24.685715"
           x="1271.1095"
           y="786.01422"
           transform="matrix(0.99895,-0.04581374,0.04581374,0.99895,0,0)" />
        <rect
           transform="matrix(0.99895,-0.04581374,0.04581374,0.99895,0,0)"
           y="758.96545"
           x="1369.8237"
           height="24.685715"
           width="123.42857"
           id="rect3937"
           style="display:inline;opacity:1;fill:none;fill-opacity:1;stroke:#939dac;stroke-width:4;stroke-linecap:round;stroke-linejoin:miter;stroke-miterlimit:4;stroke-dasharray:none;stroke-dashoffset:0;stroke-opacity:1" />
        <rect
           style="display:inline;opacity:1;fill:none;fill-opacity:1;stroke:#939dac;stroke-width:4;stroke-linecap:round;stroke-linejoin:miter;stroke-miterlimit:4;stroke-dasharray:none;stroke-dashoffset:0;stroke-opacity:1"
           id="rect3939"
           width="123.42857"
           height="24.685715"
           x="1347.8029"
           y="700.29498"
           transform="matrix(0.99895,-0.04581374,0.04581374,0.99895,0,0)"
           inkscape:transform-center-x="-35.657143"
           inkscape:transform-center-y="68.571428" />
        <rect
           inkscape:transform-center-y="68.571428"
           inkscape:transform-center-x="-35.657143"
           transform="matrix(0.99895,-0.04581374,0.04581374,0.99895,0,0)"
           y="792.0871"
           x="1044.3074"
           height="24.685715"
           width="123.42857"
           id="rect3941"
           style="display:inline;opacity:1;fill:none;fill-opacity:1;stroke:#939dac;stroke-width:4;stroke-linecap:round;stroke-linejoin:miter;stroke-miterlimit:4;stroke-dasharray:none;stroke-dashoffset:0;stroke-opacity:1" />
        <rect
           style="display:inline;opacity:1;fill:none;fill-opacity:1;stroke:#939dac;stroke-width:4;stroke-linecap:round;stroke-linejoin:miter;stroke-miterlimit:4;stroke-dasharray:none;stroke-dashoffset:0;stroke-opacity:1"
           id="rect3943"
           width="123.42857"
           height="24.685715"
           x="1144.3043"
           y="826.87628"
           transform="matrix(0.99895,-0.04581374,0.04581374,0.99895,0,0)"
           inkscape:transform-center-x="-35.657143"
           inkscape:transform-center-y="68.571428" />
        <rect
           inkscape:transform-center-y="68.571428"
           inkscape:transform-center-x="-35.657143"
           transform="matrix(0.99895,-0.04581374,0.04581374,0.99895,0,0)"
           y="821.41943"
           x="1354.6038"
           height="24.685715"
           width="123.42857"
           id="rect3945"
           style="display:inline;opacity:1;fill:none;fill-opacity:1;stroke:#939dac;stroke-width:4;stroke-linecap:round;stroke-linejoin:miter;stroke-miterlimit:4;stroke-dasharray:none;stroke-dashoffset:0;stroke-opacity:1" />
        <rect
           style="display:inline;opacity:1;fill:none;fill-opacity:1;stroke:#939dac;stroke-width:4;stroke-linecap:round;stroke-linejoin:miter;stroke-miterlimit:4;stroke-dasharray:none;stroke-dashoffset:0;stroke-opacity:1"
           id="rect3947"
           width="123.42857"
           height="24.685715"
           x="1252.8982"
           y="853.82251"
           transform="matrix(0.99895,-0.04581374,0.04581374,0.99895,0,0)"
           inkscape:transform-center-x="-35.657143"
           inkscape:transform-center-y="68.571428" />
        <rect
           inkscape:transform-center-y="68.571428"
           inkscape:transform-center-x="-35.657143"
           transform="matrix(0.99895,-0.04581374,0.04581374,0.99895,0,0)"
           y="865.50098"
           x="1028.5847"
           height="24.685715"
           width="123.42857"
           id="rect3949"
           style="display:inline;opacity:1;fill:none;fill-opacity:1;stroke:#939dac;stroke-width:4;stroke-linecap:round;stroke-linejoin:miter;stroke-miterlimit:4;stroke-dasharray:none;stroke-dashoffset:0;stroke-opacity:1" />
        <rect
           style="display:inline;opacity:1;fill:none;fill-opacity:1;stroke:#939dac;stroke-width:4;stroke-linecap:round;stroke-linejoin:miter;stroke-miterlimit:4;stroke-dasharray:none;stroke-dashoffset:0;stroke-opacity:1"
           id="rect3951"
           width="123.42859"
           height="38.699768"
           x="1109.1107"
           y="696.21246"
           transform="matrix(0.99895,-0.04581374,0.04581374,0.99895,0,0)"
           inkscape:transform-center-x="-35.657143"
           inkscape:transform-center-y="68.571428" />
        <rect
           inkscape:transform-center-y="68.571428"
           inkscape:transform-center-x="-35.657143"
           transform="matrix(0.99895,-0.04581374,0.04581374,0.99895,0,0)"
           y="769.61267"
           x="1212.8282"
           height="38.699768"
           width="123.42859"
           id="rect3953"
           style="display:inline;opacity:1;fill:none;fill-opacity:1;stroke:#939dac;stroke-width:4;stroke-linecap:round;stroke-linejoin:miter;stroke-miterlimit:4;stroke-dasharray:none;stroke-dashoffset:0;stroke-opacity:1" />
        <rect
           style="display:inline;opacity:1;fill:none;fill-opacity:1;stroke:#939dac;stroke-width:4;stroke-linecap:round;stroke-linejoin:miter;stroke-miterlimit:4;stroke-dasharray:none;stroke-dashoffset:0;stroke-opacity:1"
           id="rect3955"
           width="123.42859"
           height="38.699768"
           x="1116.7913"
           y="798.1571"
           transform="matrix(0.99895,-0.04581374,0.04581374,0.99895,0,0)"
           inkscape:transform-center-x="-35.657143"
           inkscape:transform-center-y="68.571428" />
        <rect
           inkscape:transform-center-y="68.571428"
           inkscape:transform-center-x="-35.657143"
           transform="matrix(0.99895,-0.04581374,0.04581374,0.99895,0,0)"
           y="832.41766"
           x="1295.066"
           height="38.699768"
           width="123.42859"
           id="rect3957"
           style="display:inline;opacity:1;fill:none;fill-opacity:1;stroke:#939dac;stroke-width:4;stroke-linecap:round;stroke-linejoin:miter;stroke-miterlimit:4;stroke-dasharray:none;stroke-dashoffset:0;stroke-opacity:1" />
        <rect
           style="display:inline;opacity:1;fill:none;fill-opacity:1;stroke:#939dac;stroke-width:4;stroke-linecap:round;stroke-linejoin:miter;stroke-miterlimit:4;stroke-dasharray:none;stroke-dashoffset:0;stroke-opacity:1"
           id="rect3959"
           width="123.42859"
           height="38.699768"
           x="1321.3334"
           y="708.69116"
           transform="matrix(0.99895,-0.04581374,0.04581374,0.99895,0,0)"
           inkscape:transform-center-x="-35.657143"
           inkscape:transform-center-y="68.571428" />
        <rect
           inkscape:transform-center-y="68.571428"
           inkscape:transform-center-x="-35.657143"
           transform="matrix(0.99895,-0.04581374,0.04581374,0.99895,0,0)"
           y="822.42767"
           x="1077.2378"
           height="38.699768"
           width="123.42859"
           id="rect3961"
           style="display:inline;opacity:1;fill:none;fill-opacity:1;stroke:#939dac;stroke-width:4;stroke-linecap:round;stroke-linejoin:miter;stroke-miterlimit:4;stroke-dasharray:none;stroke-dashoffset:0;stroke-opacity:1" />
        <rect
           style="display:inline;opacity:1;fill:none;fill-opacity:1;stroke:#939dac;stroke-width:4;stroke-linecap:round;stroke-linejoin:miter;stroke-miterlimit:4;stroke-dasharray:none;stroke-dashoffset:0;stroke-opacity:1"
           id="rect3963"
           width="127.14929"
           height="77.310707"
           x="733.08813"
           y="-1131.9709"
           transform="matrix(0.0511403,0.99869148,-0.99869148,0.0511403,0,0)"
           inkscape:transform-center-x="68.380347"
           inkscape:transform-center-y="36.022346" />
        <path
           id="path3922"
           style="display:inline;fill:none;fill-rule:evenodd;stroke:#939dac;stroke-width:4;stroke-linecap:butt;stroke-linejoin:miter;stroke-opacity:1"
           d="m 1468.8013,604.12459 26.0571,216.68571 m -45.7624,-215.2421 25.9849,217.1188 m -45.6902,-215.67519 25.9128,217.55188 m -45.618,-216.10827 25.8405,217.98496 m -45.5458,-216.54135 25.7684,218.41804 m -45.4737,-216.97443 25.6962,218.85112 m -45.4014,-217.40751 25.624,219.2842 m -45.3293,-217.8406 25.5519,219.7173 m -45.2572,-218.27369 25.4797,220.15038 m -45.1849,-218.70677 25.4075,220.58346 m -45.1128,-219.13985 25.3353,221.01654 m -45.0405,-219.57293 25.2631,221.44962 m -44.9684,-220.00601 25.1909,221.8827 m -44.8962,-220.4391 25.1188,222.3158 m -44.824,-220.87219 25.0466,222.74888 m -44.7519,-221.30527 24.9744,223.18196 m -44.6797,-221.73835 24.9023,223.61504 m -44.6075,-222.17143 24.83,224.04812 m -44.5353,-222.60451 24.7579,224.4812 m -44.4632,-223.03759 24.6857,224.91428"
           inkscape:path-effect="#path-effect3925-3-5"
           inkscape:original-d="m 1468.8012,604.12459 26.0571,216.68571 m -400.4571,-189.25714 24.6857,224.91429"
           inkscape:connector-curvature="0" />
        <rect
           inkscape:transform-center-y="39.445316"
           inkscape:transform-center-x="66.464575"
           transform="matrix(0.10174427,0.99481059,-0.99481059,0.10174427,0,0)"
           y="-1231.7423"
           x="809.79456"
           height="90.546936"
           width="122.63212"
           id="rect4088"
           style="display:inline;opacity:1;fill:none;fill-opacity:1;stroke:#939dac;stroke-width:4;stroke-linecap:round;stroke-linejoin:miter;stroke-miterlimit:4;stroke-dasharray:none;stroke-dashoffset:0;stroke-opacity:1" />
        <rect
           style="display:inline;opacity:1;fill:none;fill-opacity:1;stroke:#939dac;stroke-width:4;stroke-linecap:round;stroke-linejoin:miter;stroke-miterlimit:4;stroke-dasharray:none;stroke-dashoffset:0;stroke-opacity:1"
           id="rect4090"
           width="122.63212"
           height="90.546936"
           x="742.08344"
           y="-1391.9115"
           transform="matrix(0.06564338,0.99784315,-0.99784315,0.06564338,0,0)"
           inkscape:transform-center-x="67.849796"
           inkscape:transform-center-y="37.011932" />
      </g>
      <circle
         r="12.342857"
         cy="707.2782"
         cx="1106.9773"
         id="path4116"
         style="display:inline;opacity:1;fill:none;fill-opacity:1;stroke:#000000;stroke-width:4;stroke-linecap:round;stroke-linejoin:miter;stroke-miterlimit:4;stroke-dasharray:none;stroke-dashoffset:0;stroke-opacity:1" />
      <circle
         style="display:inline;opacity:1;fill:none;fill-opacity:1;stroke:#000000;stroke-width:4;stroke-linecap:round;stroke-linejoin:miter;stroke-miterlimit:4;stroke-dasharray:none;stroke-dashoffset:0;stroke-opacity:1"
         id="circle4118"
         cx="1198.6183"
         cy="653.45728"
         r="12.342857" />
      <circle
         r="12.342857"
         cy="711.64209"
         cx="1381.4155"
         id="circle4120"
         style="display:inline;opacity:1;fill:none;fill-opacity:1;stroke:#000000;stroke-width:4;stroke-linecap:round;stroke-linejoin:miter;stroke-miterlimit:4;stroke-dasharray:none;stroke-dashoffset:0;stroke-opacity:1" />
      <circle
         style="display:inline;opacity:1;fill:none;fill-opacity:1;stroke:#000000;stroke-width:4;stroke-linecap:round;stroke-linejoin:miter;stroke-miterlimit:4;stroke-dasharray:none;stroke-dashoffset:0;stroke-opacity:1"
         id="circle4122"
         cx="1481.2994"
         cy="737.82526"
         r="12.342857" />
      <circle
         r="12.342857"
         cy="792.13104"
         cx="1414.8718"
         id="circle4124"
         style="display:inline;opacity:1;fill:none;fill-opacity:1;stroke:#000000;stroke-width:4;stroke-linecap:round;stroke-linejoin:miter;stroke-miterlimit:4;stroke-dasharray:none;stroke-dashoffset:0;stroke-opacity:1" />
      <circle
         style="display:inline;opacity:1;fill:none;fill-opacity:1;stroke:#000000;stroke-width:4;stroke-linecap:round;stroke-linejoin:miter;stroke-miterlimit:4;stroke-dasharray:none;stroke-dashoffset:0;stroke-opacity:1"
         id="circle4126"
         cx="1330.9888"
         cy="761.58405"
         r="12.342857" />
      <circle
         r="12.342857"
         cy="732.00677"
         cx="1257.2881"
         id="circle4128"
         style="display:inline;opacity:1;fill:none;fill-opacity:1;stroke:#000000;stroke-width:4;stroke-linecap:round;stroke-linejoin:miter;stroke-miterlimit:4;stroke-dasharray:none;stroke-dashoffset:0;stroke-opacity:1" />
      <circle
         style="display:inline;opacity:1;fill:none;fill-opacity:1;stroke:#000000;stroke-width:4;stroke-linecap:round;stroke-linejoin:miter;stroke-miterlimit:4;stroke-dasharray:none;stroke-dashoffset:0;stroke-opacity:1"
         id="circle4130"
         cx="1139.9487"
         cy="783.88818"
         r="12.342857" />
      <circle
         r="12.342857"
         cy="821.70831"
         cx="1201.0427"
         id="circle4132"
         style="display:inline;opacity:1;fill:none;fill-opacity:1;stroke:#000000;stroke-width:4;stroke-linecap:round;stroke-linejoin:miter;stroke-miterlimit:4;stroke-dasharray:none;stroke-dashoffset:0;stroke-opacity:1" />
      <circle
         r="42.385681"
         cy="685.45892"
         cx="1144.3126"
         id="circle4140"
         style="display:inline;opacity:1;fill:none;fill-opacity:1;stroke:#000000;stroke-width:4;stroke-linecap:round;stroke-linejoin:miter;stroke-miterlimit:4;stroke-dasharray:none;stroke-dashoffset:0;stroke-opacity:1" />
      <circle
         r="23.864679"
         cy="759.15967"
         cx="1101.1589"
         id="circle4144"
         style="display:inline;opacity:1;fill:none;fill-opacity:1;stroke:#000000;stroke-width:4;stroke-linecap:round;stroke-linejoin:miter;stroke-miterlimit:4;stroke-dasharray:none;stroke-dashoffset:0;stroke-opacity:1" />
      <path
         inkscape:connector-curvature="0"
         id="path4354"
         d="m 1121.4857,631.54286 4.8,80.91428 140.2286,-5.82857 8.9143,79.54286 -122.0572,7.2 8.5715,61.02857"
         style="display:inline;fill:none;fill-rule:evenodd;stroke:#000000;stroke-width:10;stroke-linecap:butt;stroke-linejoin:miter;stroke-opacity:1" />
      <path
         inkscape:connector-curvature="0"
         id="path4356"
         d="m 1353.2571,609.94286 c 0.3429,2.4 7.2,49.37143 7.2,49.37143 l -81.6,2.74285 8.5715,79.88572 121.0285,-7.2 3.0858,30.51428 -79.2,-0.34285 9.2571,70.97143"
         style="display:inline;fill:none;fill-rule:evenodd;stroke:#000000;stroke-width:10;stroke-linecap:butt;stroke-linejoin:miter;stroke-opacity:1" />
      <path
         inkscape:connector-curvature="0"
         id="path4358"
         d="m 1400.2286,832.8 -23.6572,-206.74286 79.2,-6.17142 24.6857,203.65714"
         style="display:inline;fill:none;fill-rule:evenodd;stroke:#000000;stroke-width:10;stroke-linecap:butt;stroke-linejoin:miter;stroke-opacity:1" />
      <path
         inkscape:connector-curvature="0"
         inkscape:original-d="m 1560.1004,376.26778 -33.7406,234.57741 m -263.4979,-274.74477 -19.2803,279.56485"
         inkscape:path-effect="#path-effect4583"
         d="m 1560.1004,376.26778 -33.7406,234.57741 m 18.0965,-236.69149 -32.9796,236.94517 m 17.3354,-239.05924 -32.2184,239.31293 m 16.5743,-241.427 -31.4574,241.68069 m 15.8133,-243.79476 -30.6963,244.04845 m 15.0522,-246.16252 -29.9353,246.41621 m 14.2911,-248.53028 -29.1742,248.78397 m 13.5301,-250.89805 -28.4131,251.15173 m 12.769,-253.2658 -27.6521,253.51949 m 12.0079,-255.63356 -26.8909,255.88725 m 11.2468,-258.00132 -26.1299,258.25501 m 10.4858,-260.36908 -25.3689,260.62277 m 9.7248,-262.73684 -24.6078,262.99053 m 8.9636,-265.10461 -23.8467,265.35829 m 8.2026,-267.47236 -23.0856,267.72605 m 7.4415,-269.84012 -22.3246,270.09381 m 6.6804,-272.20788 -21.5635,272.46157 m 5.9194,-274.57564 -20.8024,274.82933 m 5.1583,-276.9434 -20.0414,277.19709 m 4.3973,-279.31117 -19.2803,279.56485"
         style="display:inline;fill:none;fill-rule:evenodd;stroke:#ffffff;stroke-width:2;stroke-linecap:butt;stroke-linejoin:miter;stroke-opacity:1"
         id="path4580" />
      <path
         inkscape:connector-curvature="0"
         inkscape:original-d="M 723.01255,115.98326 706.94561,710.46025 M 298.84519,160.97071 437.02092,732.95397"
         inkscape:path-effect="#path-effect4590-7"
         d="M 723.01255,115.98326 706.94561,710.46024 M 652.31799,123.48116 661.95816,714.2092 M 581.62343,130.97907 616.97071,717.95815 M 510.92887,138.47698 571.98326,721.70711 M 440.23431,145.97489 526.99581,725.45606 M 369.53975,153.4728 482.00836,729.20502 M 298.84519,160.97071 437.02091,732.95397"
         style="display:inline;fill:none;fill-rule:evenodd;stroke:#ffffff;stroke-width:4;stroke-linecap:butt;stroke-linejoin:miter;stroke-opacity:1"
         id="path4587" />
      <path
         inkscape:connector-curvature="0"
         inkscape:original-d="M 337.40586,609.23849 944.7364,461.42259 M 226.54393,249.33891 947.94979,276.65272"
         inkscape:path-effect="#path-effect4597-5"
         d="M 337.40586,609.23849 944.7364,461.42259 M 331.57102,590.29641 944.90553,451.69786 M 325.73618,571.35432 945.07465,441.97313 M 319.90134,552.41224 945.24378,432.2484 M 314.06651,533.47016 945.4129,422.52367 m -637.18123,92.0044 637.35036,-101.72913 m -643.1852,82.78705 643.35432,-92.51178 m -649.18916,73.5697 649.35829,-83.29443 m -655.19313,64.35234 655.36226,-74.07707 m -661.1971,55.13499 661.36622,-64.85972 M 279.05748,419.81766 946.42766,364.17529 M 273.22264,400.87557 946.59678,354.45056 M 267.3878,381.93349 946.76591,344.72583 M 261.55296,362.99141 946.93504,335.0011 m -691.21692,9.04822 691.38604,-18.77295 m -697.22088,-0.16913 697.39001,-9.5556 m -703.22484,-9.38648 703.39396,-0.33825 m -709.2288,-18.60384 709.39793,8.87911 M 232.37877,268.28099 947.78066,286.37745 M 226.54393,249.3389 947.94979,276.65271"
         style="display:inline;fill:#eeffaa;fill-rule:evenodd;stroke:#ffffff;stroke-width:2;stroke-linecap:butt;stroke-linejoin:miter;stroke-opacity:1"
         id="path4594" />
      <path
         inkscape:connector-curvature="0"
         id="path6273"
         d="m 976.07422,59.730469 -801.08203,87.830081 99.5664,325.91015 -225.99609,13.26172 0.392578,9.80664 4.625,115.62891 257.318362,-19.74805 41.99218,137.45313 -52.2539,4.11523 11.25781,115.39258 c -8.98835,0.9907 -87.40436,9.63626 -176.13281,19.27344 -46.836779,5.08714 -94.023406,10.17461 -130.1875012,13.98828 -18.0820478,1.90683 -33.4111968,3.49611 -44.5429688,4.60547 -5.565886,0.55467 -10.085933,0.99035 -13.347656,1.2832 -3.261723,0.29285 -6.035225,0.41602 -5.226563,0.41602 l 0,20 c 2.212171,0 3.636723,-0.19273 7.015625,-0.4961 3.378903,-0.30337 7.941091,-0.74447 13.542969,-1.30273 11.203755,-1.11653 26.554087,-2.70628 44.65625,-4.61524 36.204326,-3.81791 83.402555,-8.90779 130.250005,-13.99609 93.69486,-10.1766 185.98046,-20.35156 185.98046,-20.35156 l 9.81641,-1.08203 L 322.51953,752.32617 358.875,749.46289 409.77539,916.07617 457.59375,901.4668 409.92773,745.44141 713.16211,721.55664 765.10742,1010.7695 1913.8652,908.9082 1912.0996,888.98633 781.55859,989.23047 729.64453,700.19727 403.94141,725.85156 361.98047,588.5 677.67969,564.27148 665.79492,450.50977 325.91797,470.45508 240.44727,190.68555 924.27539,115.70898 905.53906,707.2793 l 49.97461,1.58203 20.56055,-649.130861 z m 181.37308,234.015621 -22.6465,295.92969 -122.7149,4.59766 3.0762,26.82226 32.3008,281.47852 523.1387,-55.71875 -20.4551,-272.74024 -365.0567,13.67579 18.1641,-237.32618 554.125,75.67969 -65.4824,358.8418 49.1894,8.97461 74.8672,-410.28125 -658.5058,-89.9336 z m -509.55863,177.84961 7.76367,74.3086 -299.6582,22.99804 -24.0625,-78.76367 315.95703,-18.54297 z m -367.31836,21.55664 24.33985,79.66993 -232.173832,17.81835 -3.404297,-85.09179 211.238279,-12.39649 z m 1223.31839,132.73243 13.2285,176.38281 -425.6328,45.33398 -23.5684,-205.38476 435.9727,-16.33203 z"
         style="color:#000000;font-style:normal;font-variant:normal;font-weight:normal;font-stretch:normal;font-size:medium;line-height:normal;font-family:sans-serif;text-indent:0;text-align:start;text-decoration:none;text-decoration-line:none;text-decoration-style:solid;text-decoration-color:#000000;letter-spacing:normal;word-spacing:normal;text-transform:none;direction:ltr;block-progression:tb;writing-mode:lr-tb;baseline-shift:baseline;text-anchor:start;white-space:normal;clip-rule:nonzero;display:inline;overflow:visible;visibility:visible;opacity:1;isolation:auto;mix-blend-mode:normal;color-interpolation:sRGB;color-interpolation-filters:linearRGB;solid-color:#000000;solid-opacity:1;fill:#6c5d53;fill-opacity:1;fill-rule:evenodd;stroke:#1a1a1a;stroke-width:8;stroke-linecap:butt;stroke-linejoin:miter;stroke-miterlimit:4;stroke-dasharray:none;stroke-dashoffset:0;stroke-opacity:1;color-rendering:auto;image-rendering:auto;shape-rendering:auto;text-rendering:auto;enable-background:accumulate" />
      <path
         inkscape:connector-curvature="0"
         inkscape:original-d="m 1085.8999,874.07062 a 8.8645973,8.8645973 0 0 1 -8.8646,8.86459 8.8645973,8.8645973 0 0 1 -8.8646,-8.86459 8.8645973,8.8645973 0 0 1 8.8646,-8.8646 8.8645973,8.8645973 0 0 1 8.8646,8.8646 z M 1051.1648,616.0387 a 8.8645973,8.8645973 0 0 1 -8.8646,8.86459 8.8645973,8.8645973 0 0 1 -8.8646,-8.86459 8.8645973,8.8645973 0 0 1 8.8646,-8.8646 8.8645973,8.8645973 0 0 1 8.8646,8.8646 z"
         inkscape:path-effect="#path-effect6305"
         d="m 1085.8999,874.07063 c 0,4.89578 -3.9688,8.86459 -8.8646,8.86459 -4.8958,0 -8.8646,-3.96881 -8.8646,-8.86459 0,-4.89579 3.9688,-8.86461 8.8646,-8.8646 4.8958,-1e-5 8.8646,3.96881 8.8646,8.8646 z m 28.6081,-3.20538 c 0,4.89578 -3.9688,8.8646 -8.8646,8.86459 -4.8958,1e-5 -8.8646,-3.96881 -8.8646,-8.86459 0,-4.89578 3.9688,-8.8646 8.8646,-8.8646 4.8958,0 8.8646,3.96882 8.8646,8.8646 z m 28.6081,-3.20537 c 0,4.89578 -3.9688,8.86459 -8.8646,8.86459 -4.8958,0 -8.8646,-3.96881 -8.8646,-8.86459 0,-4.89578 3.9688,-8.8646 8.8646,-8.8646 4.8958,0 8.8646,3.96882 8.8646,8.8646 z m 28.6081,-3.20537 c 0,4.89578 -3.9688,8.86459 -8.8646,8.86459 -4.8958,0 -8.8646,-3.96881 -8.8646,-8.86459 0,-4.89578 3.9688,-8.8646 8.8646,-8.8646 4.8958,0 8.8646,3.96882 8.8646,8.8646 z m 28.6081,-3.20537 c 0,4.89578 -3.9688,8.86459 -8.8646,8.86459 -4.8958,0 -8.8646,-3.96881 -8.8646,-8.86459 0,-4.89578 3.9688,-8.8646 8.8646,-8.8646 4.8958,0 8.8646,3.96882 8.8646,8.8646 z m 28.6081,-3.20537 c 0,4.89578 -3.9688,8.86459 -8.8646,8.86459 -4.8958,0 -8.8646,-3.96881 -8.8646,-8.86459 0,-4.89579 3.9688,-8.8646 8.8646,-8.8646 4.8958,0 8.8646,3.96881 8.8646,8.8646 z m 28.6081,-3.20537 c 0,4.89578 -3.9688,8.86459 -8.8646,8.86459 -4.8958,0 -8.8646,-3.96881 -8.8646,-8.86459 0,-4.89579 3.9688,-8.86461 8.8646,-8.8646 4.8958,-10e-6 8.8646,3.96881 8.8646,8.8646 z m 28.6081,-3.20538 c 0,4.89578 -3.9688,8.8646 -8.8646,8.86459 -4.8958,10e-6 -8.8646,-3.96881 -8.8646,-8.86459 0,-4.89578 3.9688,-8.8646 8.8646,-8.8646 4.8958,0 8.8646,3.96882 8.8646,8.8646 z m 28.6081,-3.20537 c 0,4.89578 -3.9688,8.86459 -8.8646,8.86459 -4.8958,0 -8.8646,-3.96881 -8.8646,-8.86459 0,-4.89578 3.9688,-8.8646 8.8646,-8.8646 4.8958,0 8.8646,3.96882 8.8646,8.8646 z m 28.6081,-3.20537 c 0,4.89578 -3.9688,8.86459 -8.8646,8.86459 -4.8958,0 -8.8646,-3.96881 -8.8646,-8.86459 0,-4.89578 3.9688,-8.8646 8.8646,-8.8646 4.8958,0 8.8646,3.96882 8.8646,8.8646 z m 28.6081,-3.20537 c 0,4.89578 -3.9688,8.86459 -8.8646,8.86459 -4.8958,0 -8.8646,-3.96881 -8.8646,-8.86459 0,-4.89578 3.9688,-8.8646 8.8646,-8.8646 4.8958,0 8.8646,3.96882 8.8646,8.8646 z m 28.6081,-3.20537 c 0,4.89578 -3.9688,8.86459 -8.8646,8.86459 -4.8958,0 -8.8646,-3.96881 -8.8646,-8.86459 0,-4.89579 3.9688,-8.8646 8.8646,-8.8646 4.8958,0 8.8646,3.96881 8.8646,8.8646 z m 28.6081,-3.20537 c 0,4.89578 -3.9688,8.86459 -8.8646,8.86459 -4.8958,0 -8.8646,-3.96881 -8.8646,-8.86459 0,-4.89579 3.9688,-8.8646 8.8646,-8.8646 4.8958,0 8.8646,3.96881 8.8646,8.8646 z m 28.6081,-3.20537 c 0,4.89578 -3.9688,8.86459 -8.8646,8.86459 -4.8958,0 -8.8646,-3.96881 -8.8646,-8.86459 0,-4.89579 3.9688,-8.86461 8.8646,-8.8646 4.8958,-10e-6 8.8646,3.96881 8.8646,8.8646 z m 28.6081,-3.20538 c 0,4.89578 -3.9688,8.8646 -8.8646,8.86459 -4.8958,10e-6 -8.8646,-3.96881 -8.8646,-8.86459 0,-4.89578 3.9688,-8.8646 8.8646,-8.8646 4.8958,0 8.8646,3.96882 8.8646,8.8646 z m 28.6081,-3.20537 c 0,4.89578 -3.9688,8.86459 -8.8646,8.86459 -4.8958,0 -8.8646,-3.96881 -8.8646,-8.86459 0,-4.89578 3.9688,-8.8646 8.8646,-8.8646 4.8958,0 8.8646,3.96882 8.8646,8.8646 z m 28.6081,-3.20537 c 0,4.89578 -3.9688,8.86459 -8.8646,8.86459 -4.8958,0 -8.8646,-3.96881 -8.8646,-8.86459 0,-4.89578 3.9688,-8.8646 8.8646,-8.8646 4.8958,0 8.8646,3.96882 8.8646,8.8646 z m 8.408,-20.08371 c 0,4.89578 -3.9689,8.86459 -8.8646,8.86459 -4.8958,0 -8.8646,-3.96881 -8.8646,-8.86459 0,-4.89578 3.9688,-8.8646 8.8646,-8.8646 4.8957,0 8.8646,3.96882 8.8646,8.8646 z m -1.9308,-28.72229 c 0,4.89578 -3.9689,8.86459 -8.8646,8.86459 -4.8958,0 -8.8646,-3.96881 -8.8646,-8.86459 0,-4.89578 3.9688,-8.8646 8.8646,-8.8646 4.8957,0 8.8646,3.96882 8.8646,8.8646 z m -1.9308,-28.72229 c 0,4.89578 -3.9689,8.86459 -8.8646,8.86459 -4.8958,0 -8.8646,-3.96881 -8.8646,-8.86459 0,-4.89578 3.9688,-8.8646 8.8646,-8.8646 4.8958,0 8.8646,3.96882 8.8646,8.8646 z m -1.9308,-28.72229 c 0,4.89578 -3.9688,8.86459 -8.8646,8.86459 -4.8958,0 -8.8646,-3.96881 -8.8646,-8.86459 0,-4.89578 3.9688,-8.8646 8.8646,-8.8646 4.8958,0 8.8646,3.96882 8.8646,8.8646 z m -1.9308,-28.72229 c 0,4.89578 -3.9688,8.86459 -8.8646,8.86459 -4.8958,0 -8.8646,-3.96881 -8.8646,-8.86459 0,-4.89578 3.9688,-8.8646 8.8646,-8.8646 4.8958,0 8.8646,3.96882 8.8646,8.8646 z m -1.9308,-28.72229 c 0,4.89578 -3.9688,8.86459 -8.8646,8.86459 -4.8958,0 -8.8646,-3.96881 -8.8646,-8.86459 0,-4.89578 3.9688,-8.8646 8.8646,-8.8646 4.8958,0 8.8646,3.96882 8.8646,8.8646 z m -1.9308,-28.72229 c 0,4.89578 -3.9688,8.8646 -8.8646,8.86459 -4.8958,10e-6 -8.8646,-3.96881 -8.8646,-8.86459 0,-4.89578 3.9688,-8.8646 8.8646,-8.8646 4.8958,0 8.8646,3.96882 8.8646,8.8646 z m -1.9308,-28.72229 c 0,4.89578 -3.9688,8.8646 -8.8646,8.86459 -4.8958,10e-6 -8.8646,-3.96881 -8.8646,-8.86459 0,-4.89578 3.9688,-8.8646 8.8646,-8.8646 4.8958,0 8.8646,3.96882 8.8646,8.8646 z m -27.0198,-0.97615 c 0,4.89578 -3.9688,8.8646 -8.8646,8.86459 -4.8958,1e-5 -8.8646,-3.96881 -8.8646,-8.86459 0,-4.89578 3.9688,-8.8646 8.8646,-8.8646 4.8958,0 8.8646,3.96882 8.8646,8.8646 z m -28.7711,0.96062 c 0,4.89578 -3.9688,8.86459 -8.8646,8.86459 -4.8958,0 -8.8646,-3.96881 -8.8646,-8.86459 0,-4.89578 3.9688,-8.8646 8.8646,-8.8646 4.8958,0 8.8646,3.96882 8.8646,8.8646 z m -28.7711,0.96062 c 0,4.89578 -3.9688,8.86459 -8.8646,8.86459 -4.8957,0 -8.8646,-3.96881 -8.8646,-8.86459 0,-4.89578 3.9688,-8.8646 8.8646,-8.8646 4.8958,0 8.8646,3.96882 8.8646,8.8646 z m -28.771,0.96062 c -1e-4,4.89578 -3.9689,8.86459 -8.8646,8.86459 -4.8958,0 -8.8646,-3.96881 -8.8646,-8.86459 -1e-4,-4.89578 3.9688,-8.8646 8.8646,-8.8646 4.8957,0 8.8646,3.96882 8.8646,8.8646 z m -28.7711,0.96062 c 0,4.89578 -3.9689,8.86459 -8.8646,8.86459 -4.8958,0 -8.8646,-3.96881 -8.8646,-8.86459 0,-4.89578 3.9688,-8.8646 8.8646,-8.8646 4.8958,0 8.8646,3.96882 8.8646,8.8646 z m -28.7711,0.96062 c 0,4.89578 -3.9688,8.86459 -8.8646,8.86459 -4.8958,0 -8.8646,-3.96881 -8.8646,-8.86459 0,-4.89579 3.9688,-8.8646 8.8646,-8.8646 4.8958,0 8.8646,3.96881 8.8646,8.8646 z m -28.7711,0.96062 c 0,4.89578 -3.9688,8.86459 -8.8646,8.86459 -4.8958,0 -8.8646,-3.96881 -8.8646,-8.86459 0,-4.89579 3.9688,-8.8646 8.8646,-8.8646 4.8958,0 8.8646,3.96881 8.8646,8.8646 z m -28.7711,0.96062 c 0,4.89578 -3.9688,8.86459 -8.8646,8.86459 -4.8958,0 -8.8646,-3.96881 -8.8646,-8.86459 0,-4.89579 3.9688,-8.86461 8.8646,-8.8646 4.8958,-1e-5 8.8646,3.96881 8.8646,8.8646 z m -28.7711,0.96061 c 0,4.89578 -3.9688,8.8646 -8.8646,8.86459 -4.8957,10e-6 -8.8645,-3.96881 -8.8646,-8.86459 0,-4.89578 3.9689,-8.8646 8.8646,-8.8646 4.8958,0 8.8646,3.96882 8.8646,8.8646 z m -28.771,0.96062 c 0,4.89578 -3.9689,8.8646 -8.8646,8.86459 -4.8958,10e-6 -8.8646,-3.96881 -8.8646,-8.86459 0,-4.89578 3.9688,-8.8646 8.8646,-8.8646 4.8957,0 8.8646,3.96882 8.8646,8.8646 z m -28.7711,0.96062 c 0,4.89578 -3.9688,8.86459 -8.8646,8.86459 -4.8958,0 -8.8646,-3.96881 -8.8646,-8.86459 0,-4.89578 3.9688,-8.8646 8.8646,-8.8646 4.8958,0 8.8646,3.96882 8.8646,8.8646 z m -28.7711,0.96062 c 0,4.89578 -3.9688,8.86459 -8.8646,8.86459 -4.8958,0 -8.8646,-3.96881 -8.8646,-8.86459 0,-4.89578 3.9688,-8.8646 8.8646,-8.8646 4.8958,0 8.8646,3.96882 8.8646,8.8646 z m -28.7711,0.96062 c 0,4.89578 -3.9688,8.86459 -8.8646,8.86459 -4.8958,0 -8.8646,-3.96881 -8.8646,-8.86459 0,-4.89578 3.9688,-8.8646 8.8646,-8.8646 4.8958,0 8.8646,3.96882 8.8646,8.8646 z m -28.7711,0.96062 c 0,4.89578 -3.9688,8.86459 -8.8646,8.86459 -4.8957,0 -8.8646,-3.96881 -8.8646,-8.86459 0,-4.89579 3.9689,-8.8646 8.8646,-8.8646 4.8958,0 8.8646,3.96881 8.8646,8.8646 z m -28.771,0.96062 c 0,4.89578 -3.9689,8.86459 -8.8646,8.86459 -4.8958,0 -8.8646,-3.96881 -8.8646,-8.86459 0,-4.89579 3.9688,-8.8646 8.8646,-8.8646 4.8957,0 8.8646,3.96881 8.8646,8.8646 z m -28.7711,0.96062 c 0,4.89578 -3.9688,8.86459 -8.8646,8.86459 -4.8958,0 -8.8646,-3.96881 -8.8646,-8.86459 0,-4.89579 3.9688,-8.86461 8.8646,-8.8646 4.8958,-10e-6 8.8646,3.96881 8.8646,8.8646 z m -28.7711,0.96061 c 0,4.89579 -3.9688,8.8646 -8.8646,8.86459 -4.8958,10e-6 -8.8646,-3.9688 -8.8646,-8.86459 0,-4.89578 3.9688,-8.8646 8.8646,-8.8646 4.8958,0 8.8646,3.96882 8.8646,8.8646 z"
         style="display:inline;opacity:1;fill:#ffeeaa;fill-opacity:1;stroke:#000000;stroke-width:2.10534167;stroke-linecap:round;stroke-linejoin:miter;stroke-miterlimit:4;stroke-dasharray:none;stroke-dashoffset:0;stroke-opacity:1"
         id="circle6300" />
      <path
         inkscape:connector-curvature="0"
         inkscape:original-d="m 943.85963,644.21051 a 10.526316,10.526316 0 0 1 -10.52632,10.52632 10.526316,10.526316 0 0 1 -10.52631,-10.52632 10.526316,10.526316 0 0 1 10.52631,-10.52632 10.526316,10.526316 0 0 1 10.52632,10.52632 z M 404.91227,785.9649 a 10.526316,10.526316 0 0 1 -10.52631,10.52632 10.526316,10.526316 0 0 1 -10.52632,-10.52632 10.526316,10.526316 0 0 1 10.52632,-10.52631 10.526316,10.526316 0 0 1 10.52631,10.52631 z"
         inkscape:path-effect="#path-effect6335-3"
         d="m 943.85964,644.21051 c 0,5.81353 -4.7128,10.52632 -10.52633,10.52632 -5.81352,0 -10.52631,-4.7128 -10.52631,-10.52632 0,-5.81352 4.71279,-10.52632 10.52631,-10.52632 5.81353,0 10.52633,4.71279 10.52633,10.52632 z m 1.38719,-46.49951 c 10e-6,5.81352 -4.71279,10.52632 -10.52632,10.52632 -5.81352,-10e-6 -10.52631,-4.7128 -10.52631,-10.52632 0,-5.81353 4.71279,-10.52632 10.52631,-10.52632 5.81353,0 10.52633,4.71279 10.52632,10.52632 z m 1.3872,-46.49952 c 0,5.81353 -4.71279,10.52633 -10.52632,10.52632 -5.81352,0 -10.52631,-4.71279 -10.52631,-10.52632 0,-5.81352 4.71279,-10.52631 10.52631,-10.52632 5.81353,0 10.52632,4.7128 10.52632,10.52632 z m 1.3872,-46.49951 c 0,5.81353 -4.71279,10.52632 -10.52632,10.52632 -5.81352,0 -10.52631,-4.7128 -10.52631,-10.52632 0,-5.81352 4.71279,-10.52632 10.52631,-10.52632 5.81353,0 10.52632,4.71279 10.52632,10.52632 z m 1.3872,-46.49951 c 0,5.81352 -4.71279,10.52632 -10.52632,10.52632 -5.81352,0 -10.52631,-4.7128 -10.52631,-10.52632 0,-5.81352 4.71279,-10.52632 10.52631,-10.52632 5.81353,0 10.52632,4.71279 10.52632,10.52632 z m 1.3872,-46.49951 c 0,5.81352 -4.71279,10.52632 -10.52632,10.52632 -5.81352,-10e-6 -10.52631,-4.7128 -10.52631,-10.52632 0,-5.81353 4.71279,-10.52632 10.52631,-10.52632 5.81353,0 10.52632,4.71279 10.52632,10.52632 z m 1.3872,-46.49952 c 0,5.81353 -4.7128,10.52632 -10.52632,10.52632 -5.81353,0 -10.52632,-4.71279 -10.52631,-10.52632 0,-5.81352 4.71279,-10.52631 10.52631,-10.52632 5.81352,0 10.52632,4.7128 10.52632,10.52632 z m 1.3872,-46.49951 c 0,5.81353 -4.7128,10.52632 -10.52632,10.52632 -5.81353,0 -10.52632,-4.7128 -10.52631,-10.52632 -10e-6,-5.81352 4.71278,-10.52632 10.52631,-10.52632 5.81352,0 10.52632,4.71279 10.52632,10.52632 z m 1.38719,-46.49951 c 10e-6,5.81352 -4.71279,10.52632 -10.52631,10.52632 -5.81353,-10e-6 -10.52632,-4.7128 -10.52632,-10.52632 0,-5.81353 4.71279,-10.52632 10.52632,-10.52632 5.81352,0 10.52632,4.71279 10.52631,10.52632 z m 1.3872,-46.49952 c 0,5.81353 -4.71279,10.52633 -10.52632,10.52632 -5.81352,0 -10.52631,-4.71279 -10.52631,-10.52632 0,-5.81352 4.71279,-10.52631 10.52631,-10.52631 5.81353,0 10.52632,4.71279 10.52632,10.52631 z m 1.3872,-46.49951 c 0,5.81353 -4.71279,10.52632 -10.52632,10.52632 -5.81352,0 -10.52631,-4.71279 -10.52631,-10.52632 0,-5.81352 4.71279,-10.52631 10.52631,-10.52632 5.81353,0 10.52632,4.7128 10.52632,10.52632 z m 1.3872,-46.49951 c 0,5.81352 -4.71279,10.52632 -10.52632,10.52632 -5.81352,0 -10.52631,-4.7128 -10.52631,-10.52632 0,-5.81352 4.71279,-10.52632 10.52631,-10.52632 5.81353,0 10.52632,4.71279 10.52632,10.52632 z m 0.84466,-45.911309 c 0,5.813525 -4.7128,10.52632 -10.52632,10.52632 -5.81353,-2e-6 -10.52632,-4.712796 -10.52631,-10.52632 0,-5.813523 4.71279,-10.526316 10.52631,-10.526317 5.81352,-10e-7 10.52632,4.712792 10.52632,10.526317 z m -46.23625,5.13214 c 1e-5,5.813526 -4.71279,10.526319 -10.52631,10.526319 -5.81353,0 -10.52632,-4.712795 -10.52632,-10.526319 0,-5.813523 4.71279,-10.526315 10.52632,-10.526317 5.81352,0 10.52631,4.712793 10.52631,10.526317 z m -46.23624,5.13214 c 0,5.813529 -4.71279,10.526319 -10.52632,10.526319 -5.81352,0 -10.52631,-4.71279 -10.52631,-10.526319 0,-5.813523 4.71279,-10.526315 10.52631,-10.526316 5.81353,-10e-7 10.52632,4.712792 10.52632,10.526316 z m -46.23624,5.132139 c 0,5.81353 -4.71279,10.52632 -10.52632,10.52632 -5.81352,0 -10.52631,-4.71279 -10.52631,-10.52632 0,-5.813521 4.71279,-10.526313 10.52631,-10.526315 5.81353,0 10.52632,4.712793 10.52632,10.526315 z m -46.23624,5.13214 c 0,5.81353 -4.7128,10.52632 -10.52632,10.52632 -5.81353,0 -10.52632,-4.71279 -10.52631,-10.52632 -10e-6,-5.81352 4.71279,-10.526313 10.52631,-10.526314 5.81352,0 10.52632,4.712794 10.52632,10.526314 z m -46.23625,5.13214 c 0,5.81353 -4.71279,10.52632 -10.52631,10.52632 -5.81353,0 -10.52632,-4.71279 -10.52632,-10.52632 0,-5.81352 4.71279,-10.52631 10.52632,-10.52631 5.81352,0 10.52631,4.71279 10.52631,10.52631 z m -46.23624,5.13214 c 0,5.81353 -4.71279,10.52632 -10.52632,10.52632 -5.81352,0 -10.52631,-4.71279 -10.52631,-10.52632 0,-5.81352 4.71279,-10.52631 10.52631,-10.52631 5.81353,0 10.52632,4.71279 10.52632,10.52631 z m -46.23624,5.13214 c 0,5.81353 -4.71279,10.52632 -10.52632,10.52632 -5.81352,0 -10.52632,-4.71279 -10.52631,-10.52632 0,-5.81352 4.71279,-10.52631 10.52631,-10.52631 5.81352,0 10.52632,4.71279 10.52632,10.52631 z m -46.23625,5.13214 c 10e-6,5.81353 -4.71279,10.52632 -10.52631,10.52632 -5.81353,0 -10.52632,-4.71279 -10.52632,-10.52632 0,-5.81352 4.7128,-10.52631 10.52632,-10.52631 5.81352,0 10.52631,4.71279 10.52631,10.52631 z m -46.23624,5.13214 c 0,5.81353 -4.71279,10.52632 -10.52631,10.52632 -5.81353,0 -10.52632,-4.71279 -10.52632,-10.52632 0,-5.81352 4.71279,-10.52631 10.52632,-10.52631 5.81352,0 10.52631,4.71279 10.52631,10.52631 z m -46.23624,5.13214 c 0,5.81353 -4.71279,10.52632 -10.52632,10.52632 -5.81352,0 -10.52631,-4.71279 -10.52631,-10.52632 0,-5.81352 4.71279,-10.52631 10.52631,-10.52631 5.81353,0 10.52632,4.71279 10.52632,10.52631 z m -46.23624,5.13214 c 0,5.81353 -4.71279,10.52632 -10.52632,10.52632 -5.81352,0 -10.52632,-4.71279 -10.52631,-10.52632 0,-5.81352 4.71279,-10.52631 10.52631,-10.52631 5.81352,0 10.52632,4.71279 10.52632,10.52631 z m -46.23625,5.13214 c 1e-5,5.81353 -4.71279,10.52632 -10.52631,10.52632 -5.81353,0 -10.52632,-4.71279 -10.52632,-10.52632 0,-5.81352 4.7128,-10.52631 10.52632,-10.52631 5.81352,0 10.52631,4.71279 10.52631,10.52631 z m -46.23624,5.13215 c 0,5.81352 -4.71279,10.52631 -10.52631,10.52632 -5.81353,0 -10.52632,-4.7128 -10.52632,-10.52632 0,-5.81353 4.71279,-10.52632 10.52632,-10.52632 5.81352,0 10.52631,4.71279 10.52631,10.52632 z m -46.23624,5.13214 c 0,5.81352 -4.71279,10.52631 -10.52632,10.52632 -5.81352,0 -10.52631,-4.7128 -10.52631,-10.52632 0,-5.81353 4.71279,-10.52632 10.52631,-10.52632 5.81353,0 10.52632,4.71279 10.52632,10.52632 z m -46.23625,5.13214 c 1e-5,5.81352 -4.71278,10.52631 -10.52631,10.52632 -5.81352,0 -10.52632,-4.7128 -10.52632,-10.52632 1e-5,-5.81353 4.7128,-10.52632 10.52632,-10.52632 5.81352,0 10.52631,4.71279 10.52631,10.52632 z m -46.23624,5.13214 c 0,5.81352 -4.71279,10.52631 -10.52631,10.52632 -5.81353,0 -10.52632,-4.7128 -10.52632,-10.52632 0,-5.81353 4.7128,-10.52632 10.52632,-10.52632 5.81352,0 10.52631,4.71279 10.52631,10.52632 z m 5.93461,39.31737 c 0,5.81352 -4.71279,10.52632 -10.52631,10.52632 -5.81353,0 -10.52632,-4.7128 -10.52632,-10.52632 0,-5.81353 4.71279,-10.52632 10.52632,-10.52632 5.81352,1e-5 10.52631,4.7128 10.52631,10.52632 z m 13.75339,44.44067 c 0,5.81352 -4.71279,10.52632 -10.52631,10.52632 -5.81353,0 -10.52632,-4.7128 -10.52632,-10.52632 0,-5.81352 4.71279,-10.52631 10.52632,-10.52631 5.81352,0 10.52631,4.71279 10.52631,10.52631 z m 13.75339,44.44067 c 0,5.81352 -4.71279,10.52632 -10.52631,10.52632 -5.81353,0 -10.52632,-4.71279 -10.52632,-10.52632 0,-5.81352 4.71279,-10.52631 10.52632,-10.52631 5.81352,0 10.52631,4.71279 10.52631,10.52631 z m 13.75339,44.44067 c 0,5.81353 -4.71279,10.52632 -10.52631,10.52632 -5.81353,0 -10.52632,-4.71279 -10.52632,-10.52632 0,-5.81352 4.71279,-10.52631 10.52632,-10.52631 5.81352,0 10.52631,4.71279 10.52631,10.52631 z m 13.75339,44.44067 c 0,5.81353 -4.71279,10.52632 -10.52631,10.52632 -5.81353,0 -10.52632,-4.71279 -10.52632,-10.52632 0,-5.81352 4.71279,-10.52631 10.52632,-10.52631 5.81352,0 10.52631,4.71279 10.52631,10.52631 z m 13.75339,44.44067 c 0,5.81353 -4.71279,10.52632 -10.52631,10.52632 -5.81353,1e-5 -10.52632,-4.71279 -10.52632,-10.52632 0,-5.81352 4.71279,-10.52631 10.52632,-10.52631 5.81352,0 10.52631,4.71279 10.52631,10.52631 z m 13.75339,44.44068 c 0,5.81352 -4.71279,10.52631 -10.52631,10.52632 -5.81353,0 -10.52633,-4.7128 -10.52632,-10.52632 0,-5.81353 4.71279,-10.52632 10.52632,-10.52632 5.81352,1e-5 10.5263,4.7128 10.52631,10.52632 z m 13.75339,44.44067 c 0,5.81352 -4.71279,10.52631 -10.52631,10.52632 -5.81353,0 -10.52633,-4.7128 -10.52632,-10.52632 0,-5.81353 4.71279,-10.52632 10.52632,-10.52631 5.81352,0 10.5263,4.71279 10.52631,10.52631 z m 13.75339,44.44067 c 0,5.81352 -4.71279,10.52632 -10.52631,10.52632 -5.81353,0 -10.52633,-4.7128 -10.52632,-10.52632 0,-5.81352 4.71279,-10.52631 10.52632,-10.52631 5.81352,0 10.5263,4.71279 10.52631,10.52631 z m 13.75339,44.44067 c 0,5.81352 -4.71279,10.52632 -10.52631,10.52632 -5.81353,0 -10.52633,-4.71279 -10.52632,-10.52632 0,-5.81352 4.71279,-10.52631 10.52632,-10.52631 5.81352,0 10.5263,4.71279 10.52631,10.52631 z m 13.75339,44.44067 c 0,5.81352 -4.71279,10.52632 -10.52631,10.52632 -5.81353,0 -10.52633,-4.71279 -10.52632,-10.52632 0,-5.81352 4.71279,-10.52631 10.52632,-10.52631 5.81351,0 10.5263,4.71279 10.52631,10.52631 z m 13.75339,44.44067 c 0,5.81353 -4.71279,10.52632 -10.52631,10.52632 -5.81353,0 -10.52633,-4.71279 -10.52632,-10.52632 0,-5.81352 4.71279,-10.52631 10.52632,-10.52631 5.81351,0 10.5263,4.71279 10.52631,10.52631 z m 13.75339,44.44067 c 0,5.81353 -4.71279,10.52632 -10.52631,10.52632 -5.81353,10e-6 -10.52633,-4.71279 -10.52632,-10.52632 0,-5.81352 4.71279,-10.52631 10.52632,-10.52631 5.81351,10e-6 10.5263,4.71279 10.52631,10.52631 z m 13.75338,44.44067 c 10e-6,5.81353 -4.71278,10.52632 -10.52631,10.52632 -5.81352,10e-6 -10.52632,-4.71279 -10.52632,-10.52632 1e-5,-5.81352 4.7128,-10.52631 10.52632,-10.52631 5.81352,10e-6 10.52631,4.7128 10.52631,10.52631 z"
         style="display:inline;opacity:1;fill:#6c5353;fill-opacity:1;stroke:#ffffff;stroke-width:2;stroke-linecap:round;stroke-linejoin:miter;stroke-miterlimit:4;stroke-dasharray:none;stroke-dashoffset:0;stroke-opacity:1"
         id="circle6330" />
      <g
         id="g3613"
         style="display:inline"
         transform="matrix(-0.19276448,-0.3738934,0.3738934,-0.19276448,680.59356,1477.9586)">
        <g
           id="g3725"
           transform="translate(482.02221,910.48639)">
          <g
             id="g3727">
            <g
               id="g3729"
               inkscape:label="Gear26"
               transform="matrix(2.2483366,0,0,2.2483366,569.55404,-415.21668)"
               style="fill:#4d4d4d;stroke:#000000;stroke-width:1.77909303">
              <path
                 id="path3731"
                 style="fill:#4d4d4d;stroke:#000000;stroke-width:1.77909303"
                 d="m 76.17778,-5.74856 1.37123,-0.10347 5.06057,0.85507 6.48741,2.69328 0,4.60736 -6.48741,2.69328 -5.06057,0.85507 -1.37123,-0.10347 -0.83787,6.90046 1.35615,0.22769 4.70888,2.0413 5.65436,4.16756 -1.10261,4.47348 -6.94345,1.06247 -5.11815,-0.38084 -1.30662,-0.42863 -2.46491,6.49944 1.26225,0.54561 4.08354,3.1089 4.49269,5.39963 -2.14115,4.07961 -6.99594,-0.63007 -4.87829,-1.59463 -1.16607,-0.72887 -3.9487,5.72069 1.09499,0.83183 3.22087,3.99582 3.06993,6.31789 -3.05525,3.44866 -6.64187,-2.286 -4.35491,-2.71575 -0.95776,-0.98674 -5.20301,4.60946 0.86411,1.06972 2.17102,4.6505 1.46874,6.869 -3.79178,2.61728 -5.9018,-3.80908 -3.57844,-3.67904 -0.69379,-1.18727 -6.15493,3.23036 0.58299,1.24542 0.995,5.03493 -0.21779,7.02089 -4.30796,1.63379 -4.81873,-5.11079 -2.59401,-4.4285 -0.38949,-1.31881 -6.74916,1.66352 0.268,1.34875 -0.23885,5.12674 -1.89167,6.76476 -4.57377,0.55535 -3.45561,-6.11547 -1.45883,-4.92061 -0.06256,-1.3737 -6.95114,0 -0.06256,1.3737 -1.45883,4.92061 -3.45561,6.11547 -4.57377,-0.55535 -1.89167,-6.76476 -0.23885,-5.12674 0.268,-1.34875 -6.74916,-1.66352 -0.38949,1.31881 -2.59401,4.4285 -4.81873,5.11079 -4.30796,-1.63379 -0.21779,-7.02089 0.995,-5.03493 0.58299,-1.24542 -6.15493,-3.23036 -0.69379,1.18727 -3.57844,3.67904 -5.9018,3.80908 -3.79178,-2.61728 1.46874,-6.869 2.17102,-4.6505 0.86411,-1.06972 -5.20301,-4.60946 -0.95776,0.98674 -4.35491,2.71575 -6.64187,2.286 -3.05525,-3.44866 3.06993,-6.31789 3.22087,-3.99582 1.09499,-0.83183 -3.9487,-5.72069 -1.16607,0.72887 -4.87829,1.59463 -6.99594,0.63007 -2.14115,-4.07961 4.49269,-5.39963 4.08354,-3.1089 1.26225,-0.54561 -2.46491,-6.49944 -1.30662,0.42863 -5.11815,0.38084 -6.94345,-1.06247 -1.10261,-4.47348 5.65436,-4.16756 4.70888,-2.0413 1.35615,-0.22769 -0.83787,-6.90046 -1.37123,0.10347 -5.06057,-0.85507 -6.48741,-2.69328 0,-4.60736 6.48741,-2.69328 5.06057,-0.85507 1.37123,0.10347 0.83787,-6.90046 -1.35615,-0.22769 -4.70888,-2.0413 -5.65436,-4.16756 1.10261,-4.47348 6.94345,-1.06247 5.11815,0.38084 1.30662,0.42863 2.46491,-6.49944 -1.26225,-0.54561 -4.08354,-3.1089 -4.49269,-5.39963 2.14115,-4.07961 6.99594,0.63007 4.87829,1.59463 1.16607,0.72887 3.9487,-5.72069 -1.09499,-0.83183 -3.22087,-3.99582 -3.06993,-6.31789 3.05525,-3.44866 6.64187,2.286 4.35491,2.71575 0.95776,0.98674 5.20301,-4.60946 -0.86411,-1.06972 -2.17102,-4.6505 -1.46874,-6.869 3.79178,-2.61728 5.9018,3.80908 3.57844,3.67904 0.69379,1.18727 6.15493,-3.23036 -0.58299,-1.24542 -0.995,-5.03493 0.21779,-7.02089 4.30796,-1.63379 4.81873,5.11079 2.59401,4.4285 0.38949,1.31881 6.74916,-1.66352 -0.268,-1.34875 0.23885,-5.12674 1.89167,-6.76476 4.57377,-0.55535 3.45561,6.11547 1.45883,4.92061 0.06256,1.3737 6.95114,0 0.06256,-1.3737 1.45883,-4.92061 3.45561,-6.11547 4.57377,0.55535 1.89167,6.76476 0.23885,5.12674 -0.268,1.34875 6.74916,1.66352 0.38949,-1.31881 2.59401,-4.4285 4.81873,-5.11079 4.30796,1.63379 0.21779,7.02089 -0.995,5.03493 -0.58299,1.24542 6.15493,3.23036 0.69379,-1.18727 3.57844,-3.67904 5.9018,-3.80908 3.79178,2.61728 -1.46874,6.869 -2.17102,4.6505 -0.86411,1.06972 5.20301,4.60946 0.95776,-0.98674 4.35491,-2.71575 6.64187,-2.286 3.05525,3.44866 -3.06993,6.31789 -3.22087,3.99582 -1.09499,0.83183 3.9487,5.72069 1.16607,-0.72887 4.87829,-1.59463 6.99594,-0.63007 2.14115,4.07961 -4.49269,5.39963 -4.08354,3.1089 -1.26225,0.54561 2.46491,6.49944 1.30662,-0.42863 5.11815,-0.38084 6.94345,1.06247 1.10261,4.47348 -5.65436,4.16756 -4.70888,2.0413 -1.35615,0.22769 z"
                 inkscape:connector-curvature="0" />
              <circle
                 id="circle3733"
                 style="fill:#4d4d4d;stroke:#000000;stroke-width:1.77909303"
                 cx="0"
                 cy="0"
                 r="10" />
            </g>
            <g
               style="fill:#4d4d4d;stroke:#000000;stroke-width:1.77909303"
               transform="matrix(1.4064169,0,0,1.4064169,569.55404,-415.21668)"
               inkscape:label="Gear26"
               id="g3735">
              <path
                 inkscape:connector-curvature="0"
                 d="m 76.17778,-5.74856 1.37123,-0.10347 5.06057,0.85507 6.48741,2.69328 0,4.60736 -6.48741,2.69328 -5.06057,0.85507 -1.37123,-0.10347 -0.83787,6.90046 1.35615,0.22769 4.70888,2.0413 5.65436,4.16756 -1.10261,4.47348 -6.94345,1.06247 -5.11815,-0.38084 -1.30662,-0.42863 -2.46491,6.49944 1.26225,0.54561 4.08354,3.1089 4.49269,5.39963 -2.14115,4.07961 -6.99594,-0.63007 -4.87829,-1.59463 -1.16607,-0.72887 -3.9487,5.72069 1.09499,0.83183 3.22087,3.99582 3.06993,6.31789 -3.05525,3.44866 -6.64187,-2.286 -4.35491,-2.71575 -0.95776,-0.98674 -5.20301,4.60946 0.86411,1.06972 2.17102,4.6505 1.46874,6.869 -3.79178,2.61728 -5.9018,-3.80908 -3.57844,-3.67904 -0.69379,-1.18727 -6.15493,3.23036 0.58299,1.24542 0.995,5.03493 -0.21779,7.02089 -4.30796,1.63379 -4.81873,-5.11079 -2.59401,-4.4285 -0.38949,-1.31881 -6.74916,1.66352 0.268,1.34875 -0.23885,5.12674 -1.89167,6.76476 -4.57377,0.55535 -3.45561,-6.11547 -1.45883,-4.92061 -0.06256,-1.3737 -6.95114,0 -0.06256,1.3737 -1.45883,4.92061 -3.45561,6.11547 -4.57377,-0.55535 -1.89167,-6.76476 -0.23885,-5.12674 0.268,-1.34875 -6.74916,-1.66352 -0.38949,1.31881 -2.59401,4.4285 -4.81873,5.11079 -4.30796,-1.63379 -0.21779,-7.02089 0.995,-5.03493 0.58299,-1.24542 -6.15493,-3.23036 -0.69379,1.18727 -3.57844,3.67904 -5.9018,3.80908 -3.79178,-2.61728 1.46874,-6.869 2.17102,-4.6505 0.86411,-1.06972 -5.20301,-4.60946 -0.95776,0.98674 -4.35491,2.71575 -6.64187,2.286 -3.05525,-3.44866 3.06993,-6.31789 3.22087,-3.99582 1.09499,-0.83183 -3.9487,-5.72069 -1.16607,0.72887 -4.87829,1.59463 -6.99594,0.63007 -2.14115,-4.07961 4.49269,-5.39963 4.08354,-3.1089 1.26225,-0.54561 -2.46491,-6.49944 -1.30662,0.42863 -5.11815,0.38084 -6.94345,-1.06247 -1.10261,-4.47348 5.65436,-4.16756 4.70888,-2.0413 1.35615,-0.22769 -0.83787,-6.90046 -1.37123,0.10347 -5.06057,-0.85507 -6.48741,-2.69328 0,-4.60736 6.48741,-2.69328 5.06057,-0.85507 1.37123,0.10347 0.83787,-6.90046 -1.35615,-0.22769 -4.70888,-2.0413 -5.65436,-4.16756 1.10261,-4.47348 6.94345,-1.06247 5.11815,0.38084 1.30662,0.42863 2.46491,-6.49944 -1.26225,-0.54561 -4.08354,-3.1089 -4.49269,-5.39963 2.14115,-4.07961 6.99594,0.63007 4.87829,1.59463 1.16607,0.72887 3.9487,-5.72069 -1.09499,-0.83183 -3.22087,-3.99582 -3.06993,-6.31789 3.05525,-3.44866 6.64187,2.286 4.35491,2.71575 0.95776,0.98674 5.20301,-4.60946 -0.86411,-1.06972 -2.17102,-4.6505 -1.46874,-6.869 3.79178,-2.61728 5.9018,3.80908 3.57844,3.67904 0.69379,1.18727 6.15493,-3.23036 -0.58299,-1.24542 -0.995,-5.03493 0.21779,-7.02089 4.30796,-1.63379 4.81873,5.11079 2.59401,4.4285 0.38949,1.31881 6.74916,-1.66352 -0.268,-1.34875 0.23885,-5.12674 1.89167,-6.76476 4.57377,-0.55535 3.45561,6.11547 1.45883,4.92061 0.06256,1.3737 6.95114,0 0.06256,-1.3737 1.45883,-4.92061 3.45561,-6.11547 4.57377,0.55535 1.89167,6.76476 0.23885,5.12674 -0.268,1.34875 6.74916,1.66352 0.38949,-1.31881 2.59401,-4.4285 4.81873,-5.11079 4.30796,1.63379 0.21779,7.02089 -0.995,5.03493 -0.58299,1.24542 6.15493,3.23036 0.69379,-1.18727 3.57844,-3.67904 5.9018,-3.80908 3.79178,2.61728 -1.46874,6.869 -2.17102,4.6505 -0.86411,1.06972 5.20301,4.60946 0.95776,-0.98674 4.35491,-2.71575 6.64187,-2.286 3.05525,3.44866 -3.06993,6.31789 -3.22087,3.99582 -1.09499,0.83183 3.9487,5.72069 1.16607,-0.72887 4.87829,-1.59463 6.99594,-0.63007 2.14115,4.07961 -4.49269,5.39963 -4.08354,3.1089 -1.26225,0.54561 2.46491,6.49944 1.30662,-0.42863 5.11815,-0.38084 6.94345,1.06247 1.10261,4.47348 -5.65436,4.16756 -4.70888,2.0413 -1.35615,0.22769 z"
                 style="fill:#333333;stroke:#000000;stroke-width:1.77909303"
                 id="path3737" />
              <circle
                 r="10"
                 cy="0"
                 cx="0"
                 style="fill:#4d4d4d;stroke:#000000;stroke-width:1.77909303"
                 id="circle3739" />
            </g>
          </g>
        </g>
        <g
           style="fill:#1a1a1a;stroke:#ffffff;stroke-width:3.47360468"
           transform="matrix(1.1515415,0,0,1.1515415,1564.1347,113.52136)"
           inkscape:label="Gear26"
           id="g3805">
          <path
             inkscape:connector-curvature="0"
             d="m 76.17778,-5.74856 1.37123,-0.10347 5.06057,0.85507 6.48741,2.69328 0,4.60736 -6.48741,2.69328 -5.06057,0.85507 -1.37123,-0.10347 -0.83787,6.90046 1.35615,0.22769 4.70888,2.0413 5.65436,4.16756 -1.10261,4.47348 -6.94345,1.06247 -5.11815,-0.38084 -1.30662,-0.42863 -2.46491,6.49944 1.26225,0.54561 4.08354,3.1089 4.49269,5.39963 -2.14115,4.07961 -6.99594,-0.63007 -4.87829,-1.59463 -1.16607,-0.72887 -3.9487,5.72069 1.09499,0.83183 3.22087,3.99582 3.06993,6.31789 -3.05525,3.44866 -6.64187,-2.286 -4.35491,-2.71575 -0.95776,-0.98674 -5.20301,4.60946 0.86411,1.06972 2.17102,4.6505 1.46874,6.869 -3.79178,2.61728 -5.9018,-3.80908 -3.57844,-3.67904 -0.69379,-1.18727 -6.15493,3.23036 0.58299,1.24542 0.995,5.03493 -0.21779,7.02089 -4.30796,1.63379 -4.81873,-5.11079 -2.59401,-4.4285 -0.38949,-1.31881 -6.74916,1.66352 0.268,1.34875 -0.23885,5.12674 -1.89167,6.76476 -4.57377,0.55535 -3.45561,-6.11547 -1.45883,-4.92061 -0.06256,-1.3737 -6.95114,0 -0.06256,1.3737 -1.45883,4.92061 -3.45561,6.11547 -4.57377,-0.55535 -1.89167,-6.76476 -0.23885,-5.12674 0.268,-1.34875 -6.74916,-1.66352 -0.38949,1.31881 -2.59401,4.4285 -4.81873,5.11079 -4.30796,-1.63379 -0.21779,-7.02089 0.995,-5.03493 0.58299,-1.24542 -6.15493,-3.23036 -0.69379,1.18727 -3.57844,3.67904 -5.9018,3.80908 -3.79178,-2.61728 1.46874,-6.869 2.17102,-4.6505 0.86411,-1.06972 -5.20301,-4.60946 -0.95776,0.98674 -4.35491,2.71575 -6.64187,2.286 -3.05525,-3.44866 3.06993,-6.31789 3.22087,-3.99582 1.09499,-0.83183 -3.9487,-5.72069 -1.16607,0.72887 -4.87829,1.59463 -6.99594,0.63007 -2.14115,-4.07961 4.49269,-5.39963 4.08354,-3.1089 1.26225,-0.54561 -2.46491,-6.49944 -1.30662,0.42863 -5.11815,0.38084 -6.94345,-1.06247 -1.10261,-4.47348 5.65436,-4.16756 4.70888,-2.0413 1.35615,-0.22769 -0.83787,-6.90046 -1.37123,0.10347 -5.06057,-0.85507 -6.48741,-2.69328 0,-4.60736 6.48741,-2.69328 5.06057,-0.85507 1.37123,0.10347 0.83787,-6.90046 -1.35615,-0.22769 -4.70888,-2.0413 -5.65436,-4.16756 1.10261,-4.47348 6.94345,-1.06247 5.11815,0.38084 1.30662,0.42863 2.46491,-6.49944 -1.26225,-0.54561 -4.08354,-3.1089 -4.49269,-5.39963 2.14115,-4.07961 6.99594,0.63007 4.87829,1.59463 1.16607,0.72887 3.9487,-5.72069 -1.09499,-0.83183 -3.22087,-3.99582 -3.06993,-6.31789 3.05525,-3.44866 6.64187,2.286 4.35491,2.71575 0.95776,0.98674 5.20301,-4.60946 -0.86411,-1.06972 -2.17102,-4.6505 -1.46874,-6.869 3.79178,-2.61728 5.9018,3.80908 3.57844,3.67904 0.69379,1.18727 6.15493,-3.23036 -0.58299,-1.24542 -0.995,-5.03493 0.21779,-7.02089 4.30796,-1.63379 4.81873,5.11079 2.59401,4.4285 0.38949,1.31881 6.74916,-1.66352 -0.268,-1.34875 0.23885,-5.12674 1.89167,-6.76476 4.57377,-0.55535 3.45561,6.11547 1.45883,4.92061 0.06256,1.3737 6.95114,0 0.06256,-1.3737 1.45883,-4.92061 3.45561,-6.11547 4.57377,0.55535 1.89167,6.76476 0.23885,5.12674 -0.268,1.34875 6.74916,1.66352 0.38949,-1.31881 2.59401,-4.4285 4.81873,-5.11079 4.30796,1.63379 0.21779,7.02089 -0.995,5.03493 -0.58299,1.24542 6.15493,3.23036 0.69379,-1.18727 3.57844,-3.67904 5.9018,-3.80908 3.79178,2.61728 -1.46874,6.869 -2.17102,4.6505 -0.86411,1.06972 5.20301,4.60946 0.95776,-0.98674 4.35491,-2.71575 6.64187,-2.286 3.05525,3.44866 -3.06993,6.31789 -3.22087,3.99582 -1.09499,0.83183 3.9487,5.72069 1.16607,-0.72887 4.87829,-1.59463 6.99594,-0.63007 2.14115,4.07961 -4.49269,5.39963 -4.08354,3.1089 -1.26225,0.54561 2.46491,6.49944 1.30662,-0.42863 5.11815,-0.38084 6.94345,1.06247 1.10261,4.47348 -5.65436,4.16756 -4.70888,2.0413 -1.35615,0.22769 z"
             style="fill:#1a1a1a;stroke:#ffffff;stroke-width:3.47360468"
             id="path3807" />
          <circle
             r="10"
             cy="0"
             cx="0"
             style="fill:#1a1a1a;stroke:#ffffff;stroke-width:3.47360468"
             id="circle3809" />
        </g>
        <g
           transform="translate(1020.4213,-132.48564)"
           id="g3841">
          <g
             id="g3843">
            <g
               style="fill:#4d4d4d;stroke:#000000;stroke-width:1.77909303"
               transform="matrix(2.2483366,0,0,2.2483366,569.55404,-415.21668)"
               inkscape:label="Gear26"
               id="g3845">
              <path
                 inkscape:connector-curvature="0"
                 d="m 76.17778,-5.74856 1.37123,-0.10347 5.06057,0.85507 6.48741,2.69328 0,4.60736 -6.48741,2.69328 -5.06057,0.85507 -1.37123,-0.10347 -0.83787,6.90046 1.35615,0.22769 4.70888,2.0413 5.65436,4.16756 -1.10261,4.47348 -6.94345,1.06247 -5.11815,-0.38084 -1.30662,-0.42863 -2.46491,6.49944 1.26225,0.54561 4.08354,3.1089 4.49269,5.39963 -2.14115,4.07961 -6.99594,-0.63007 -4.87829,-1.59463 -1.16607,-0.72887 -3.9487,5.72069 1.09499,0.83183 3.22087,3.99582 3.06993,6.31789 -3.05525,3.44866 -6.64187,-2.286 -4.35491,-2.71575 -0.95776,-0.98674 -5.20301,4.60946 0.86411,1.06972 2.17102,4.6505 1.46874,6.869 -3.79178,2.61728 -5.9018,-3.80908 -3.57844,-3.67904 -0.69379,-1.18727 -6.15493,3.23036 0.58299,1.24542 0.995,5.03493 -0.21779,7.02089 -4.30796,1.63379 -4.81873,-5.11079 -2.59401,-4.4285 -0.38949,-1.31881 -6.74916,1.66352 0.268,1.34875 -0.23885,5.12674 -1.89167,6.76476 -4.57377,0.55535 -3.45561,-6.11547 -1.45883,-4.92061 -0.06256,-1.3737 -6.95114,0 -0.06256,1.3737 -1.45883,4.92061 -3.45561,6.11547 -4.57377,-0.55535 -1.89167,-6.76476 -0.23885,-5.12674 0.268,-1.34875 -6.74916,-1.66352 -0.38949,1.31881 -2.59401,4.4285 -4.81873,5.11079 -4.30796,-1.63379 -0.21779,-7.02089 0.995,-5.03493 0.58299,-1.24542 -6.15493,-3.23036 -0.69379,1.18727 -3.57844,3.67904 -5.9018,3.80908 -3.79178,-2.61728 1.46874,-6.869 2.17102,-4.6505 0.86411,-1.06972 -5.20301,-4.60946 -0.95776,0.98674 -4.35491,2.71575 -6.64187,2.286 -3.05525,-3.44866 3.06993,-6.31789 3.22087,-3.99582 1.09499,-0.83183 -3.9487,-5.72069 -1.16607,0.72887 -4.87829,1.59463 -6.99594,0.63007 -2.14115,-4.07961 4.49269,-5.39963 4.08354,-3.1089 1.26225,-0.54561 -2.46491,-6.49944 -1.30662,0.42863 -5.11815,0.38084 -6.94345,-1.06247 -1.10261,-4.47348 5.65436,-4.16756 4.70888,-2.0413 1.35615,-0.22769 -0.83787,-6.90046 -1.37123,0.10347 -5.06057,-0.85507 -6.48741,-2.69328 0,-4.60736 6.48741,-2.69328 5.06057,-0.85507 1.37123,0.10347 0.83787,-6.90046 -1.35615,-0.22769 -4.70888,-2.0413 -5.65436,-4.16756 1.10261,-4.47348 6.94345,-1.06247 5.11815,0.38084 1.30662,0.42863 2.46491,-6.49944 -1.26225,-0.54561 -4.08354,-3.1089 -4.49269,-5.39963 2.14115,-4.07961 6.99594,0.63007 4.87829,1.59463 1.16607,0.72887 3.9487,-5.72069 -1.09499,-0.83183 -3.22087,-3.99582 -3.06993,-6.31789 3.05525,-3.44866 6.64187,2.286 4.35491,2.71575 0.95776,0.98674 5.20301,-4.60946 -0.86411,-1.06972 -2.17102,-4.6505 -1.46874,-6.869 3.79178,-2.61728 5.9018,3.80908 3.57844,3.67904 0.69379,1.18727 6.15493,-3.23036 -0.58299,-1.24542 -0.995,-5.03493 0.21779,-7.02089 4.30796,-1.63379 4.81873,5.11079 2.59401,4.4285 0.38949,1.31881 6.74916,-1.66352 -0.268,-1.34875 0.23885,-5.12674 1.89167,-6.76476 4.57377,-0.55535 3.45561,6.11547 1.45883,4.92061 0.06256,1.3737 6.95114,0 0.06256,-1.3737 1.45883,-4.92061 3.45561,-6.11547 4.57377,0.55535 1.89167,6.76476 0.23885,5.12674 -0.268,1.34875 6.74916,1.66352 0.38949,-1.31881 2.59401,-4.4285 4.81873,-5.11079 4.30796,1.63379 0.21779,7.02089 -0.995,5.03493 -0.58299,1.24542 6.15493,3.23036 0.69379,-1.18727 3.57844,-3.67904 5.9018,-3.80908 3.79178,2.61728 -1.46874,6.869 -2.17102,4.6505 -0.86411,1.06972 5.20301,4.60946 0.95776,-0.98674 4.35491,-2.71575 6.64187,-2.286 3.05525,3.44866 -3.06993,6.31789 -3.22087,3.99582 -1.09499,0.83183 3.9487,5.72069 1.16607,-0.72887 4.87829,-1.59463 6.99594,-0.63007 2.14115,4.07961 -4.49269,5.39963 -4.08354,3.1089 -1.26225,0.54561 2.46491,6.49944 1.30662,-0.42863 5.11815,-0.38084 6.94345,1.06247 1.10261,4.47348 -5.65436,4.16756 -4.70888,2.0413 -1.35615,0.22769 z"
                 style="fill:#4d4d4d;stroke:#000000;stroke-width:1.77909303"
                 id="path3847" />
              <circle
                 r="10"
                 cy="0"
                 cx="0"
                 style="fill:#4d4d4d;stroke:#000000;stroke-width:1.77909303"
                 id="circle3849" />
            </g>
            <g
               id="g3851"
               inkscape:label="Gear26"
               transform="matrix(1.4064169,0,0,1.4064169,569.55404,-415.21668)"
               style="fill:#4d4d4d;stroke:#000000;stroke-width:1.77909303">
              <path
                 id="path3853"
                 style="fill:#333333;stroke:#000000;stroke-width:1.77909303"
                 d="m 76.17778,-5.74856 1.37123,-0.10347 5.06057,0.85507 6.48741,2.69328 0,4.60736 -6.48741,2.69328 -5.06057,0.85507 -1.37123,-0.10347 -0.83787,6.90046 1.35615,0.22769 4.70888,2.0413 5.65436,4.16756 -1.10261,4.47348 -6.94345,1.06247 -5.11815,-0.38084 -1.30662,-0.42863 -2.46491,6.49944 1.26225,0.54561 4.08354,3.1089 4.49269,5.39963 -2.14115,4.07961 -6.99594,-0.63007 -4.87829,-1.59463 -1.16607,-0.72887 -3.9487,5.72069 1.09499,0.83183 3.22087,3.99582 3.06993,6.31789 -3.05525,3.44866 -6.64187,-2.286 -4.35491,-2.71575 -0.95776,-0.98674 -5.20301,4.60946 0.86411,1.06972 2.17102,4.6505 1.46874,6.869 -3.79178,2.61728 -5.9018,-3.80908 -3.57844,-3.67904 -0.69379,-1.18727 -6.15493,3.23036 0.58299,1.24542 0.995,5.03493 -0.21779,7.02089 -4.30796,1.63379 -4.81873,-5.11079 -2.59401,-4.4285 -0.38949,-1.31881 -6.74916,1.66352 0.268,1.34875 -0.23885,5.12674 -1.89167,6.76476 -4.57377,0.55535 -3.45561,-6.11547 -1.45883,-4.92061 -0.06256,-1.3737 -6.95114,0 -0.06256,1.3737 -1.45883,4.92061 -3.45561,6.11547 -4.57377,-0.55535 -1.89167,-6.76476 -0.23885,-5.12674 0.268,-1.34875 -6.74916,-1.66352 -0.38949,1.31881 -2.59401,4.4285 -4.81873,5.11079 -4.30796,-1.63379 -0.21779,-7.02089 0.995,-5.03493 0.58299,-1.24542 -6.15493,-3.23036 -0.69379,1.18727 -3.57844,3.67904 -5.9018,3.80908 -3.79178,-2.61728 1.46874,-6.869 2.17102,-4.6505 0.86411,-1.06972 -5.20301,-4.60946 -0.95776,0.98674 -4.35491,2.71575 -6.64187,2.286 -3.05525,-3.44866 3.06993,-6.31789 3.22087,-3.99582 1.09499,-0.83183 -3.9487,-5.72069 -1.16607,0.72887 -4.87829,1.59463 -6.99594,0.63007 -2.14115,-4.07961 4.49269,-5.39963 4.08354,-3.1089 1.26225,-0.54561 -2.46491,-6.49944 -1.30662,0.42863 -5.11815,0.38084 -6.94345,-1.06247 -1.10261,-4.47348 5.65436,-4.16756 4.70888,-2.0413 1.35615,-0.22769 -0.83787,-6.90046 -1.37123,0.10347 -5.06057,-0.85507 -6.48741,-2.69328 0,-4.60736 6.48741,-2.69328 5.06057,-0.85507 1.37123,0.10347 0.83787,-6.90046 -1.35615,-0.22769 -4.70888,-2.0413 -5.65436,-4.16756 1.10261,-4.47348 6.94345,-1.06247 5.11815,0.38084 1.30662,0.42863 2.46491,-6.49944 -1.26225,-0.54561 -4.08354,-3.1089 -4.49269,-5.39963 2.14115,-4.07961 6.99594,0.63007 4.87829,1.59463 1.16607,0.72887 3.9487,-5.72069 -1.09499,-0.83183 -3.22087,-3.99582 -3.06993,-6.31789 3.05525,-3.44866 6.64187,2.286 4.35491,2.71575 0.95776,0.98674 5.20301,-4.60946 -0.86411,-1.06972 -2.17102,-4.6505 -1.46874,-6.869 3.79178,-2.61728 5.9018,3.80908 3.57844,3.67904 0.69379,1.18727 6.15493,-3.23036 -0.58299,-1.24542 -0.995,-5.03493 0.21779,-7.02089 4.30796,-1.63379 4.81873,5.11079 2.59401,4.4285 0.38949,1.31881 6.74916,-1.66352 -0.268,-1.34875 0.23885,-5.12674 1.89167,-6.76476 4.57377,-0.55535 3.45561,6.11547 1.45883,4.92061 0.06256,1.3737 6.95114,0 0.06256,-1.3737 1.45883,-4.92061 3.45561,-6.11547 4.57377,0.55535 1.89167,6.76476 0.23885,5.12674 -0.268,1.34875 6.74916,1.66352 0.38949,-1.31881 2.59401,-4.4285 4.81873,-5.11079 4.30796,1.63379 0.21779,7.02089 -0.995,5.03493 -0.58299,1.24542 6.15493,3.23036 0.69379,-1.18727 3.57844,-3.67904 5.9018,-3.80908 3.79178,2.61728 -1.46874,6.869 -2.17102,4.6505 -0.86411,1.06972 5.20301,4.60946 0.95776,-0.98674 4.35491,-2.71575 6.64187,-2.286 3.05525,3.44866 -3.06993,6.31789 -3.22087,3.99582 -1.09499,0.83183 3.9487,5.72069 1.16607,-0.72887 4.87829,-1.59463 6.99594,-0.63007 2.14115,4.07961 -4.49269,5.39963 -4.08354,3.1089 -1.26225,0.54561 2.46491,6.49944 1.30662,-0.42863 5.11815,-0.38084 6.94345,1.06247 1.10261,4.47348 -5.65436,4.16756 -4.70888,2.0413 -1.35615,0.22769 z"
                 inkscape:connector-curvature="0" />
              <circle
                 id="circle3855"
                 style="fill:#4d4d4d;stroke:#000000;stroke-width:1.77909303"
                 cx="0"
                 cy="0"
                 r="10" />
            </g>
          </g>
        </g>
        <path
           style="color:#000000;font-style:normal;font-variant:normal;font-weight:normal;font-stretch:normal;font-size:medium;line-height:normal;font-family:sans-serif;text-indent:0;text-align:start;text-decoration:none;text-decoration-line:none;text-decoration-style:solid;text-decoration-color:#000000;letter-spacing:normal;word-spacing:normal;text-transform:none;direction:ltr;block-progression:tb;writing-mode:lr-tb;baseline-shift:baseline;text-anchor:start;white-space:normal;clip-rule:nonzero;display:inline;overflow:visible;visibility:visible;opacity:1;isolation:auto;mix-blend-mode:normal;color-interpolation:sRGB;color-interpolation-filters:linearRGB;solid-color:#000000;solid-opacity:1;fill:#000000;fill-opacity:1;fill-rule:evenodd;stroke:none;stroke-width:40;stroke-linecap:round;stroke-linejoin:miter;stroke-miterlimit:4;stroke-dasharray:none;stroke-dashoffset:0;stroke-opacity:1;color-rendering:auto;image-rendering:auto;shape-rendering:auto;text-rendering:auto;enable-background:accumulate"
           d="m 1589.9746,273.93945 a 45.995164,45.995164 0 0 0 -45.9941,45.9961 45.995164,45.995164 0 0 0 29.7246,42.96484 c 25.3364,318.67574 -30.5852,521.05003 -127.752,664.09571 -93.2966,137.348 -226.2251,221.4295 -367.5469,298.6035 a 45.995164,45.995164 0 0 0 -26.83,-8.6875 45.995164,45.995164 0 0 0 -45.9942,45.9961 45.995164,45.995164 0 0 0 45.9942,45.9941 45.995164,45.995164 0 0 0 45.9961,-45.9941 45.995164,45.995164 0 0 0 -0.076,-2.1504 c 142.9928,-78.0211 282.5796,-165.5891 381.5469,-311.2851 10.2223,-15.049 19.9905,-30.7077 29.2754,-47.0157 a 59.759031,59.759031 0 0 0 55.8164,38.461 59.759031,59.759031 0 0 0 59.7597,-59.75784 59.759031,59.759031 0 0 0 -59.7597,-59.75977 59.759031,59.759031 0 0 0 -17.2442,2.5957 c 58.581,-139.3398 86.068,-320.4526 66.6621,-564.62695 a 45.995164,45.995164 0 0 0 22.418,-39.43359 45.995164,45.995164 0 0 0 -45.9961,-45.9961 z m 0,22.15039 a 23.846256,23.846256 0 0 1 23.8477,23.84571 23.846256,23.846256 0 0 1 -23.8477,23.8457 23.846256,23.846256 0 0 1 -23.8457,-23.8457 23.846256,23.846256 0 0 1 23.8457,-23.84571 z m -25.8398,654.69727 a 30.371315,30.371315 0 0 1 30.3711,30.37305 30.371315,30.371315 0 0 1 -30.3711,30.37104 30.371315,30.371315 0 0 1 -30.3711,-30.37104 30.371315,30.371315 0 0 1 30.3711,-30.37305 z"
           transform="translate(0,-867.63784)"
           id="path3804"
           inkscape:connector-curvature="0" />
      </g>
      <g
         id="g3645"
         style="display:inline"
         transform="matrix(0.51753057,0,0,0.51753057,1551.9976,852.52426)">
        <path
           id="path3859"
           style="fill:#4d4d4d;stroke:#000000;stroke-width:4"
           d="m 505.79779,-119.65367 3.17376,-0.23949 11.71289,1.97909 15.01535,6.2337 0,10.66392 -15.01535,6.233696 -11.71289,1.979092 -3.17376,-0.239485 -1.93929,15.97138 3.13887,0.526997 10.89888,4.724667 13.08723,9.645978 -2.55203,10.354041 -16.07088,2.459128 -11.84616,-0.881469 -3.02422,-0.992081 -5.70513,15.043204 2.92153,1.262835 9.45151,7.195668 10.3985,12.497651 -4.95577,9.4424143 -16.19237,-1.4583212 -11.29099,-3.6908321 -2.69892,-1.686998 -9.13941,13.24075677 2.53439,1.92530253 7.45483,9.2484787 7.10547,14.622999 -7.07149,7.982056 -15.37287,-5.291035 -10.0796,-6.285707 -2.21678,-2.283848 -12.04256,10.668772 2.00001,2.475908 5.02491,10.763761 3.39946,15.898564 -8.77622,6.057795 -13.65994,-8.816262 -8.28244,-8.515279 -1.60581,-2.747982 -14.24582,7.476792 1.34936,2.882573 2.30296,11.653539 -0.50408,16.250119 -9.97094,3.78147 -11.15314,-11.82912 -6.00393,-10.249933 -0.90149,-3.052437 -15.62119,3.850281 0.62029,3.121734 -0.55282,11.866037 -4.37835,15.657296 -10.58616,1.285379 -7.99814,-14.15449 -3.37652,-11.388941 -0.1448,-3.179481 -16.08868,0 -0.1448,3.179481 -3.37652,11.388941 -7.99814,14.15449 -10.58616,-1.285379 -4.37835,-15.657296 -0.55282,-11.866037 0.62029,-3.121734 -15.62119,-3.850281 -0.90149,3.052437 -6.00393,10.249933 -11.15314,11.82912 -9.97094,-3.78147 -0.50408,-16.250119 2.30296,-11.653539 1.34936,-2.882573 -14.24582,-7.476792 -1.60581,2.747982 -8.28244,8.515279 -13.65994,8.816262 -8.77622,-6.057795 3.39946,-15.898564 5.02491,-10.763761 2.00001,-2.475908 -12.04256,-10.668772 -2.21678,2.283848 -10.0796,6.285707 -15.37287,5.291035 -7.07149,-7.982056 7.10547,-14.622999 7.45483,-9.2484787 2.53439,-1.92530253 -9.13941,-13.24075677 -2.69892,1.686998 -11.29099,3.6908321 -16.19237,1.4583212 -4.95577,-9.4424143 10.3985,-12.497651 9.45151,-7.195668 2.92153,-1.262835 -5.70513,-15.043204 -3.02422,0.992081 -11.84616,0.881469 -16.07088,-2.459128 -2.55203,-10.354041 13.08723,-9.645978 10.89888,-4.724667 3.13887,-0.526997 -1.93929,-15.97138 -3.17376,0.239485 -11.71289,-1.979092 -15.01535,-6.233696 0,-10.66392 15.01535,-6.2337 11.71289,-1.97909 3.17376,0.23949 1.93929,-15.97138 -3.13887,-0.527 -10.89888,-4.72467 -13.08723,-9.64597 2.55203,-10.35405 16.07088,-2.45912 11.84616,0.88147 3.02422,0.99208 5.70513,-15.04321 -2.92153,-1.26283 -9.45151,-7.19567 -10.3985,-12.49765 4.95577,-9.44242 16.19237,1.45832 11.29099,3.69084 2.69892,1.68699 9.13941,-13.24075 -2.53439,-1.9253 -7.45483,-9.24848 -7.10547,-14.623 7.07149,-7.98206 15.37287,5.29104 10.0796,6.2857 2.21678,2.28385 12.04256,-10.66877 -2.00001,-2.47591 -5.02491,-10.76376 -3.39946,-15.89856 8.77622,-6.0578 13.65994,8.81626 8.28244,8.51528 1.60581,2.74798 14.24582,-7.47679 -1.34936,-2.88257 -2.30296,-11.65354 0.50408,-16.25012 9.97094,-3.78147 11.15314,11.82912 6.00393,10.24994 0.90149,3.05243 15.62119,-3.85028 -0.62029,-3.12173 0.55282,-11.86604 4.37835,-15.6573 10.58616,-1.28538 7.99814,14.15449 3.37652,11.38895 0.1448,3.17948 16.08868,0 0.1448,-3.17948 3.37652,-11.38895 7.99814,-14.15449 10.58616,1.28538 4.37835,15.6573 0.55282,11.86604 -0.62029,3.12173 15.62119,3.85028 0.90149,-3.05243 6.00393,-10.24994 11.15314,-11.82912 9.97094,3.78147 0.50408,16.25012 -2.30296,11.65354 -1.34936,2.88257 14.24582,7.47679 1.60581,-2.74798 8.28244,-8.51528 13.65994,-8.81626 8.77622,6.0578 -3.39946,15.89856 -5.02491,10.76376 -2.00001,2.47591 12.04256,10.66877 2.21678,-2.28385 10.0796,-6.2857 15.37287,-5.29104 7.07149,7.98206 -7.10547,14.623 -7.45483,9.24848 -2.53439,1.9253 9.13941,13.24075 2.69892,-1.68699 11.29099,-3.69084 16.19237,-1.45832 4.95577,9.44242 -10.3985,12.49765 -9.45151,7.19567 -2.92153,1.26283 5.70513,15.04321 3.02422,-0.99208 11.84616,-0.88147 16.07088,2.45912 2.55203,10.35405 -13.08723,9.64597 -10.89888,4.72467 -3.13887,0.527 z"
           inkscape:connector-curvature="0" />
        <path
           inkscape:connector-curvature="0"
           style="opacity:1;fill:#1a1a1a;fill-opacity:1;stroke:none;stroke-width:4;stroke-linecap:round;stroke-linejoin:miter;stroke-miterlimit:4;stroke-dasharray:none;stroke-dashoffset:0;stroke-opacity:1"
           d="m 322.95312,616.61328 a 144.90573,144.90573 0 0 0 -91.10742,37.8086 l 67.43555,67.43554 a 49.729321,49.729321 0 0 1 23.67187,-9.8125 l 0,-95.43164 z m 13.05665,0.0957 0,95.3418 a 49.729321,49.729321 0 0 1 23.68945,9.78906 l 67.40234,-67.40234 a 144.90573,144.90573 0 0 0 -91.09179,-37.72852 z m 100.33984,46.94532 -67.43555,67.43554 a 49.729321,49.729321 0 0 1 9.8125,23.67188 l 95.42969,0 A 144.90573,144.90573 0 0 0 436.34961,663.6543 Z m -213.7207,0.0156 a 144.90573,144.90573 0 0 0 -37.72657,91.0918 l 95.33985,0 a 49.729321,49.729321 0 0 1 9.78906,-23.68945 L 222.62891,663.6699 Z m 100.32421,73.28711 a 25.204271,25.204271 0 0 0 -6.04687,2.52539 l 1.50586,1.50586 a 23.145384,23.145384 0 0 1 4.54101,-1.88867 l 0,-2.14258 z m 13.05665,0.0195 0,2.1211 a 23.145384,23.145384 0 0 1 4.55859,1.87304 l 1.49414,-1.49414 a 25.204271,25.204271 0 0 0 -6.05273,-2.5 z m -28.3418,11.73242 a 25.204271,25.204271 0 0 0 -2.5,6.05274 l 2.12109,0 a 23.145384,23.145384 0 0 1 1.875,-4.55664 l -1.49609,-1.4961 z m 43.62109,0.006 -1.50586,1.50586 a 23.145384,23.145384 0 0 1 1.88868,4.54102 l 2.14453,0 a 25.204271,25.204271 0 0 0 -2.52735,-6.04688 z m -166.48242,19.10352 a 144.90573,144.90573 0 0 0 37.80664,91.10547 l 67.43555,-67.4336 a 49.729321,49.729321 0 0 1 -9.8125,-23.67187 l -95.42969,0 z m 120.3418,0 a 25.204271,25.204271 0 0 0 2.52539,6.04687 l 1.50781,-1.50781 a 23.145384,23.145384 0 0 1 -1.89062,-4.53906 l -2.14258,0 z m 46.52539,0 a 23.145384,23.145384 0 0 1 -1.875,4.55664 l 1.49609,1.49609 a 25.204271,25.204271 0 0 0 2.5,-6.05273 l -2.12109,0 z m 27.04687,0 a 49.729321,49.729321 0 0 1 -9.78906,23.68945 l 67.40234,67.40039 a 144.90573,144.90573 0 0 0 37.72657,-91.08984 l -95.33985,0 z m -38.17187,13.77148 a 23.145384,23.145384 0 0 1 -4.53906,1.88868 l 0,2.14648 a 25.204271,25.204271 0 0 0 6.04687,-2.52734 l -1.50781,-1.50782 z m -22.15235,0.0176 -1.49609,1.4961 a 25.204271,25.204271 0 0 0 6.05273,2.5 l 0,-2.12305 a 23.145384,23.145384 0 0 1 -4.55664,-1.87305 z m 41.28516,19.11524 a 49.729321,49.729321 0 0 1 -23.67187,9.8125 l 0,95.42968 a 144.90573,144.90573 0 0 0 91.10742,-37.80859 l -67.43555,-67.43359 z m -60.41797,0.0176 -67.40234,67.40039 a 144.90573,144.90573 0 0 0 91.09179,37.72852 l 0,-95.33984 a 49.729321,49.729321 0 0 1 -23.68945,-9.78907 z"
           id="path3588"
           transform="translate(0,-867.63784)" />
        <path
           style="opacity:1;fill:#917c6f;fill-opacity:1;stroke:#000000;stroke-width:4;stroke-linecap:round;stroke-linejoin:miter;stroke-miterlimit:4;stroke-dasharray:none;stroke-dashoffset:0;stroke-opacity:1"
           d="m 329.48042,-156.07793 a 49.729321,49.729321 0 0 0 -49.72852,49.72851 49.729321,49.729321 0 0 0 49.72852,49.73047 49.729321,49.729321 0 0 0 49.73046,-49.73047 49.729321,49.729321 0 0 0 -49.73046,-49.72851 z m 0,24.52539 a 25.204271,25.204271 0 0 1 25.20507,25.20312 25.204271,25.204271 0 0 1 -25.20507,25.20508 25.204271,25.204271 0 0 1 -25.20313,-25.20508 25.204271,25.204271 0 0 1 25.20313,-25.20312 z"
           id="circle3614"
           inkscape:connector-curvature="0" />
      </g>
      <path
         inkscape:connector-curvature="0"
         id="path3627"
         d="m 992.03581,518.17713 -8.06191,-2.79569 -8.65,9.71825 -4.56652,8.33587 -0.65084,2.46344 -12.58296,-2.72134 0.42399,-2.51171 -0.71465,-9.47846 -3.86149,-12.42207 -8.49812,-0.78575 -6.07209,11.50531 -2.43889,9.18616 -0.0427,2.5467 -12.86883,0.36927 -0.18922,-2.53829 -2.96136,-9.03184 -6.72262,-11.13808 -8.43828,1.27009 -3.14177,12.6244 -0.16922,9.50397 0.56764,2.4832 -12.40705,3.43915 -0.79078,-2.42178 -5.03821,-8.06035 -9.19283,-9.20552 -7.88769,3.25439 -0.03,13.0094 2.10862,9.2674 1.14588,2.27526 -11.22224,6.30748 -1.34749,-2.16157 -6.82094,-6.6198 -11.12895,-6.7388 -6.87984,5.04643 3.08408,12.63876 4.2664,8.49375 1.65651,1.93512 -9.38715,8.81002 -1.82494,-1.77565 -8.20797,-4.79626 -12.41722,-3.8789 -5.4731,6.54636 6.01955,11.53377 6.17493,7.22602 2.07111,1.48195 -7.00463,10.80077 -2.19733,-1.28793 -9.11634,-2.69177 -12.98493,-0.79556 -3.74708,7.66655 8.6044,9.75813 7.72526,5.53794 2.36547,0.94391 -4.21878,12.16239 -2.4417,-0.72373 -9.49515,-0.43284 -12.79862,2.33624 -1.80283,8.34022 10.68917,7.41451 8.827,3.52973 2.5222,0.34906 -1.1843,12.81921 -2.54386,-0.1196 -9.3236,1.85329 -11.86638,5.32988 0.24421,8.53011 12.15425,4.64103 9.4137,1.315 2.53338,-0.26477 1.91767,12.72972 -2.49923,0.49368 -8.60769,4.02973 -10.24638,8.01604 2.27805,8.22298 12.9111,1.59793 9.45578,-0.97804 2.39599,-0.86248 4.90876,11.90238 -2.30736,1.07627 -7.39494,5.97236 -8.03085,10.23482 4.18129,7.43974 12.91834,-1.53841 8.94572,-3.21217 2.11972,-1.41153 7.61467,10.38075 -1.98316,1.59829 -5.75048,7.56934 -5.34759,11.85941 5.84085,6.22253 12.1737,-4.58476 7.91783,-5.25927 1.72132,-1.87761 9.87764,8.25643 -1.54319,2.02555 -3.77246,8.72572 -2.3531,12.79416 7.15877,4.64352 10.72342,-7.36538 6.42943,-7.00091 1.22121,-2.23512 11.56568,5.65282 -1.01331,2.33672 -1.57396,9.37406 0.77651,12.98606 8.0619,2.7957 8.64931,-9.71684 4.56721,-8.33728 0.65015,-2.46204 12.5843,2.72201 -0.42533,2.51104 0.71465,9.47846 3.86293,12.42278 8.49668,0.78504 6.07208,-11.50531 2.43959,-9.18756 0.0427,-2.5467 12.86887,-0.36926 0.18852,2.5397 2.96137,9.03184 6.72262,11.13808 8.43896,-1.27149 3.14177,-12.6244 0.16923,-9.50398 -0.56834,-2.48179 12.40706,-3.43915 0.79146,2.42038 5.03753,8.06174 9.19282,9.20553 7.88775,-3.25439 0.03,-13.0094 -2.10861,-9.2674 -1.14589,-2.27526 11.2223,-6.30748 1.3475,2.16157 6.8209,6.6198 11.129,6.7388 6.8805,-5.04784 -3.0848,-12.63736 -4.2657,-8.49516 -1.6572,-1.93371 9.3872,-8.81001 1.8249,1.77564 8.208,4.79625 12.4172,3.87891 5.4731,-6.54636 -6.0196,-11.53376 -6.1749,-7.22602 -2.0711,-1.48195 7.0061,-10.80007 2.1979,1.28648 9.1143,2.69252 12.9856,0.79415 3.7471,-7.66655 -8.6051,-9.75672 -7.7232,-5.53869 -2.3661,-0.94246 4.2174,-12.16309 2.4417,0.72373 9.4951,0.43284 12.7986,-2.33624 1.8029,-8.34023 -10.6892,-7.41452 -8.827,-3.52972 -2.5222,-0.34905 1.1843,-12.81922 2.5445,0.11819 9.323,-1.85188 11.867,-5.33128 -0.2449,-8.5287 -12.1542,-4.64103 -9.4137,-1.315 -2.5334,0.26476 -1.9177,-12.72971 2.4993,-0.49368 8.6076,-4.02973 10.2464,-8.01604 -2.278,-8.22298 -12.9111,-1.59793 -9.4551,0.97663 -2.3967,0.86389 -4.9088,-11.90238 2.3081,-1.07768 7.3949,-5.97235 8.0309,-10.23482 -4.182,-7.43834 -12.9183,1.53841 -8.9458,3.21217 -2.119,1.41012 -7.6147,-10.38076 1.9832,-1.5983 5.7498,-7.56793 5.3475,-11.85941 -5.8394,-6.22183 -12.1751,4.58406 -7.9178,5.25927 -1.72,1.87828 -9.879,-8.2571 1.5439,-2.02696 3.7718,-8.72431 2.3538,-12.79557 -7.1588,-4.64353 -10.7234,7.3654 -6.4302,7.00231 -1.2205,2.23372 -11.56571,-5.65282 1.01263,-2.33532 1.57464,-9.37546 -0.77649,-12.98607 z m -11.95083,48.20515 -33.53228,68.6072 a 39.792861,39.792861 0 0 0 -20.46595,-1.26336 l -24.78517,-72.17551 a 115.95199,115.95199 0 0 1 78.7834,4.83167 z m 9.35299,4.6566 a 115.95199,115.95199 0 0 1 52.23033,59.13095 l -72.13992,24.77307 a 39.792861,39.792861 0 0 0 -13.59112,-15.36141 l 33.50071,-68.54261 z m 55.64043,69.00662 a 115.95199,115.95199 0 0 1 -4.8331,78.78273 l -68.60587,-33.53161 a 39.792861,39.792861 0 0 0 1.26331,-20.46595 l 72.17566,-24.78517 z m -153.65246,-75.08488 24.77302,72.14002 a 39.792861,39.792861 0 0 0 -15.36147,13.59102 l -68.54112,-33.49998 a 115.95199,115.95199 0 0 1 59.12957,-52.23106 z m 51.37543,89.60236 a 20.172293,20.172293 0 0 1 7.13633,5.87112 20.172293,20.172293 0 0 1 4.14433,12.85429 20.168183,20.168183 0 0 1 -0.004,0.0782 20.172293,20.172293 0 0 1 -0.14164,1.80602 20.168183,20.168183 0 0 1 -0.072,0.53884 20.172293,20.172293 0 0 1 -1.79811,5.83236 20.172293,20.172293 0 0 1 -5.87188,7.13774 20.172293,20.172293 0 0 1 -12.8277,4.14334 20.168183,20.168183 0 0 1 -0.13712,-0.004 20.172293,20.172293 0 0 1 -1.757,-0.13859 20.168183,20.168183 0 0 1 -0.57596,-0.078 20.172293,20.172293 0 0 1 -5.81199,-1.79344 20.172293,20.172293 0 0 1 -7.13777,-5.87182 20.172293,20.172293 0 0 1 -4.14275,-12.83613 20.168183,20.168183 0 0 1 0.005,-0.12305 20.172293,20.172293 0 0 1 0.13787,-1.75916 20.168183,20.168183 0 0 1 0.0752,-0.56684 20.172293,20.172293 0 0 1 1.7968,-5.82604 20.172293,20.172293 0 0 1 5.8712,-7.13632 20.172293,20.172293 0 0 1 12.86056,-4.14294 20.168183,20.168183 0 0 1 0.0672,0.001 20.172293,20.172293 0 0 1 1.80603,0.14166 20.168183,20.168183 0 0 1 0.53186,0.0721 20.172293,20.172293 0 0 1 5.84558,1.79941 z m -115.16159,-28.01833 68.6058,33.5316 a 39.792861,39.792861 0 0 0 -1.2633,20.46594 l -72.17497,24.78377 a 115.95199,115.95199 0 0 1 4.83249,-78.78134 z m 139.40774,68.13657 68.54118,33.49999 a 115.95199,115.95199 0 0 1 -59.1289,52.22966 l -24.77375,-72.13863 a 39.792861,39.792861 0 0 0 15.36147,-13.59102 z m -25.24925,16.96551 24.78588,72.17414 a 115.95199,115.95199 0 0 1 -78.78342,-4.8317 l 33.53159,-68.6058 a 39.792861,39.792861 0 0 0 20.46595,1.26336 z M 898.35662,690.43 a 39.792861,39.792861 0 0 0 13.59111,15.36141 l -33.50002,68.54121 a 115.95199,115.95199 0 0 1 -52.2303,-59.13096 l 72.13923,-24.7717 z"
         style="display:inline;fill:#4d4d4d;stroke:#000000;stroke-width:3.20075631" />
      <path
         inkscape:connector-curvature="0"
         id="path3662"
         d="m 1894.9946,825.01141 -3.8833,0.47147 -1.606,5.74399 -0.2025,4.35298 0.2277,1.14538 -5.7305,1.41171 -0.3312,-1.11929 -2.2016,-3.76005 -4.0921,-4.33949 -3.6575,1.38742 -0.1844,5.96083 0.8448,4.27471 0.4949,1.0572 -5.2258,2.74333 -0.5893,-1.00861 -3.0384,-3.12303 -5.0107,-3.2346 -3.2193,2.22238 1.247,5.83217 1.8436,3.9481 0.7333,0.90874 -4.4177,3.91301 -0.8134,-0.83767 -3.6971,-2.30515 -5.6396,-1.94166 -2.594,2.92868 2.6066,5.3643 2.7352,3.39205 0.9295,0.70631 -3.3525,4.85684 -0.9907,-0.61813 -4.1415,-1.35412 -5.9401,-0.53535 -1.8175,3.46403 3.814,4.58422 3.4677,2.63987 1.0716,0.46337 -2.0929,5.51815 -1.1093,-0.3635 -4.3458,-0.3239 -5.8952,0.90244 -0.9357,3.79784 4.8001,3.53871 3.9985,1.73292 1.1517,0.19344 -0.7117,5.85917 -1.1643,-0.0882 -4.2963,0.7261 -5.5082,2.28626 0,3.91211 5.5082,2.28716 4.2963,0.7252 1.1643,-0.0873 0.7117,5.85826 -1.1517,0.19345 -3.9985,1.73291 -4.8001,3.53871 0.9357,3.79874 5.8952,0.90155 4.3458,-0.32301 1.1093,-0.3644 2.0929,5.51816 -1.0716,0.46337 -3.4677,2.63986 -3.814,4.58422 1.8175,3.46404 5.9401,-0.53535 4.1415,-1.35323 0.9907,-0.61902 3.3525,4.85684 -0.9295,0.7063 -2.7352,3.39296 -2.6066,5.3643 2.594,2.92778 5.6396,-1.94076 3.6971,-2.30605 0.8134,-0.83767 4.4177,3.91391 -0.7333,0.90784 -1.8436,3.9481 -1.247,5.83217 3.2193,2.22238 5.0107,-3.2337 3.0384,-3.12393 0.5893,-1.00772 5.2258,2.74244 -0.4949,1.0572 -0.8448,4.27471 0.1844,5.96173 3.6575,1.38651 4.0921,-4.33948 2.2016,-3.75915 0.3312,-1.12019 5.7305,1.4126 -0.2277,1.14539 0.2025,4.35208 1.606,5.744 3.8833,0.47146 2.9341,-5.19245 1.239,-4.17753 0.053,-1.16607 5.9015,0 0.053,1.16607 1.2389,4.17753 2.9341,5.19245 3.8833,-0.47146 1.6061,-5.744 0.2024,-4.35208 -0.2276,-1.14539 5.7305,-1.4126 0.3311,1.12019 2.2017,3.75915 4.092,4.33948 3.6575,-1.38651 0.1845,-5.96173 -0.8449,-4.27471 -0.4949,-1.0572 5.2258,-2.74244 0.5893,1.00772 3.0385,3.12393 5.0107,3.2337 3.2192,-2.22238 -1.247,-5.83217 -1.8436,-3.9481 -0.7333,-0.90784 4.4178,-3.91391 0.8133,0.83767 3.6971,2.30605 5.6396,1.94076 2.594,-2.92778 -2.6065,-5.3643 -2.7353,-3.39296 -0.9294,-0.7063 3.3524,-4.85684 0.9907,0.61902 4.1415,1.35323 5.9402,0.53535 1.8174,-3.46404 -3.814,-4.58422 -3.4676,-2.63986 -1.0716,-0.46337 2.0928,-5.51816 1.1094,0.3644 4.3458,0.32301 5.8951,-0.90155 0.9358,-3.79874 -4.8002,-3.53871 -3.9985,-1.73291 -1.1508,-0.19345 0.7108,-5.85826 1.1643,0.0873 4.2972,-0.7252 5.5074,-2.28716 0,-3.91211 -5.5074,-2.28626 -4.2972,-0.7261 -1.1643,0.0882 -0.7108,-5.85917 1.1508,-0.19344 3.9985,-1.73292 4.8002,-3.53871 -0.9358,-3.79784 -5.8951,-0.90244 -4.3458,0.3239 -1.1094,0.3635 -2.0928,-5.51815 1.0716,-0.46337 3.4676,-2.63987 3.814,-4.58422 -1.8174,-3.46403 -5.9402,0.53535 -4.1415,1.35412 -0.9907,0.61813 -3.3524,-4.85684 0.9294,-0.70631 2.7353,-3.39205 2.6065,-5.3643 -2.594,-2.92868 -5.6396,1.94166 -3.6971,2.30515 -0.8133,0.83767 -4.4178,-3.91301 0.7333,-0.90874 1.8436,-3.9481 1.247,-5.83217 -3.2192,-2.22238 -5.0107,3.2346 -3.0385,3.12303 -0.5893,1.00861 -5.2258,-2.74333 0.4949,-1.0572 0.8449,-4.27471 -0.1845,-5.96083 -3.6575,-1.38742 -4.092,4.33949 -2.2017,3.76005 -0.3311,1.11929 -5.7305,-1.41171 0.2276,-1.14538 -0.2024,-4.35298 -1.6061,-5.74399 -3.8833,-0.47147 -2.9341,5.19245 -1.2389,4.17843 -0.053,1.16607 -5.9015,0 -0.053,-1.16607 -1.239,-4.17843 -2.9341,-5.19245 z m 7.1773,22.44782 a 19.241381,19.241381 0 0 1 19.2411,19.24203 19.241381,19.241381 0 0 1 -19.2411,19.24112 19.241381,19.241381 0 0 1 -19.242,-19.24112 19.241381,19.241381 0 0 1 19.242,-19.24203 z m -33.5147,8.2525 a 8.7595978,8.7595978 0 0 1 6.0661,2.56428 8.7595978,8.7595978 0 0 1 0,12.38864 8.7595978,8.7595978 0 0 1 -12.3878,0 8.7595978,8.7595978 0 0 1 0,-12.38864 8.7595978,8.7595978 0 0 1 6.3217,-2.56428 z m 69.5145,2.23047 a 8.7595978,8.7595978 0 0 1 6.0662,2.56519 8.7595978,8.7595978 0 0 1 0,12.38773 8.7595978,8.7595978 0 0 1 -12.3878,0 8.7595978,8.7595978 0 0 1 0,-12.38773 8.7595978,8.7595978 0 0 1 6.3216,-2.56519 z m -69.6423,23.15953 a 19.241381,19.241381 0 0 1 19.2411,19.24112 19.241381,19.241381 0 0 1 -19.2411,19.24113 19.241381,19.241381 0 0 1 -19.2411,-19.24113 19.241381,19.241381 0 0 1 19.2411,-19.24112 z m 67.2841,0 a 19.241381,19.241381 0 0 1 19.2411,19.24112 19.241381,19.241381 0 0 1 -19.2411,19.24113 19.241381,19.241381 0 0 1 -19.2411,-19.24113 19.241381,19.241381 0 0 1 19.2411,-19.24112 z m -33.5138,10.48297 a 8.7595978,8.7595978 0 0 1 6.0661,2.56428 8.7595978,8.7595978 0 0 1 0,12.38774 8.7595978,8.7595978 0 0 1 -12.3886,0 8.7595978,8.7595978 0 0 1 0,-12.38774 8.7595978,8.7595978 0 0 1 6.3225,-2.56428 z m -0.1278,23.15863 a 19.241381,19.241381 0 0 1 19.2411,19.24202 19.241381,19.241381 0 0 1 -19.2411,19.24113 19.241381,19.241381 0 0 1 -19.242,-19.24113 19.241381,19.241381 0 0 1 19.242,-19.24202 z m -35.7452,10.48297 a 8.7595978,8.7595978 0 0 1 6.0661,2.56428 8.7595978,8.7595978 0 0 1 0,12.38864 8.7595978,8.7595978 0 0 1 -12.3877,0 8.7595978,8.7595978 0 0 1 0,-12.38864 8.7595978,8.7595978 0 0 1 6.3216,-2.56428 z m 69.5146,2.23047 a 8.7595978,8.7595978 0 0 1 6.0661,2.56519 8.7595978,8.7595978 0 0 1 0,12.38774 8.7595978,8.7595978 0 0 1 -12.3877,0 8.7595978,8.7595978 0 0 1 0,-12.38774 8.7595978,8.7595978 0 0 1 6.3216,-2.56519 z"
         style="display:inline;fill:#ac9393;stroke:#000000;stroke-width:1.51052403" />
    </g>
  </g>
  <g
     inkscape:groupmode="layer"
     id="layer4"
     inkscape:label="Layer 4" />
  <g
     inkscape:groupmode="layer"
     id="layer3"
     inkscape:label="Layer 3" />
</svg>
