<svg xmlns="http://www.w3.org/2000/svg" viewBox="0 0 140 150">
    <style>.st1{fill:#fff}</style>
    <path d="M133 64H0v82c0 2.2 1.8 4 4 4h125c2.2 0 4-1.8 4-4V64z" fill="#0c6186" id="inbox_back"/>
    <g id="paper">
        <path class="st1"
              d="M14 120.5c-5.2 0-9.5-4.3-9.5-9.5V21c0-5.2 4.3-9.5 9.5-9.5h105c5.2 0 9.5 4.3 9.5 9.5v90c0 5.2-4.3 9.5-9.5 9.5H14z"/>
        <path d="M119 12c5 0 9 4 9 9v90c0 5-4 9-9 9H14c-5 0-9-4-9-9V21c0-5 4-9 9-9h105m0-1H14C8.5 11 4 15.5 4 21v90c0 5.5 4.5 10 10 10h105c5.5 0 10-4.5 10-10V21c0-5.5-4.5-10-10-10z"
              fill="#ebebeb"/>
        <path d="M115 54H17c-1.1 0-2-.9-2-2s.9-2 2-2h98c1.1 0 2 .9 2 2s-.9 2-2 2zm-10 9H16c-1.1 0-2-.9-2-2s.9-2 2-2h89c1.1 0 2 .9 2 2s-.9 2-2 2zm10 8H16c-1.1 0-2-.9-2-2s.9-2 2-2h99c1.1 0 2 .9 2 2s-.9 2-2 2zm0 9H16c-1.1 0-2-.9-2-2s.9-2 2-2h99c1.1 0 2 .9 2 2s-.9 2-2 2zm0 9H16c-1.1 0-2-.9-2-2s.9-2 2-2h99c1.1 0 2 .9 2 2s-.9 2-2 2zm0 9H16c-1.1 0-2-.9-2-2s.9-2 2-2h99c1.1 0 2 .9 2 2s-.9 2-2 2zm0 9H16c-1.1 0-2-.9-2-2s.9-2 2-2h99c1.1 0 2 .9 2 2s-.9 2-2 2z"
              fill="#eaeaea"/>
        <path d="M96.5 30h-78c-1.9 0-3.5-1.6-3.5-3.5s1.6-3.5 3.5-3.5h78c1.9 0 3.5 1.6 3.5 3.5S98.4 30 96.5 30zm-15 11h-63c-1.9 0-3.5-1.6-3.5-3.5s1.6-3.5 3.5-3.5h63c1.9 0 3.5 1.6 3.5 3.5S83.4 41 81.5 41z"
              fill="#d5d5d5"/>
    </g>
    <g id="notification">
        <circle cx="128.5" cy="11.5" r="8.5" fill="#329a2c"/>
        <path class="st1"
              d="M126 14h2V9.9c-.3-.1-.3-.3-.3-.4l-1.3.9H126.1s-.1 0-.1-.1l-.3-.3 2.1-2.1h1.2v6h2v1h-5V14z"/>
    </g>
    <g id="inbox_front">
        <path d="M0 64v82c0 2.2 1.8 4 4 4h125c1 0 1.8-.4 2.5-.9L0 64z" fill="#1a91c7"/>
        <path d="M1.5 149.1c.7.5 1.5.9 2.5.9h125c2.2 0 4-1.8 4-4V64L1.5 149.1z" fill="#0f77a6"/>
    </g>
</svg>
